<svg preserveAspectRatio="none" width="100%" height="100%" overflow="visible" style="display: block;" viewBox="0 0 82 81" fill="none" xmlns="http://www.w3.org/2000/svg" xmlns:xlink="http://www.w3.org/1999/xlink">
<path id="Vector 287" d="M64.2373 0.5V34.8867L64.5361 35.0176L81.293 42.3564L71.8965 59.0781C69.2023 61.4125 64.9331 64.9357 60.7988 67.9883C58.7146 69.5272 56.6713 70.9421 54.8857 72.0234C53.0824 73.1155 51.597 73.8322 50.6123 74.0293C48.4001 74.4722 45.2117 75.6611 42.1543 76.9482C39.2781 78.1591 36.4831 79.4744 34.6562 80.3789L23.0518 66.6514L0.702148 34.6914L9.98828 28.4961L10.4688 28.1748L10.082 27.7461L0.611328 17.2109L9.77051 0.913086L22.2578 17.5801L22.5312 17.9453L22.9199 17.7061L50.8525 0.5H64.2373Z" fill="url(#pattern0_0_516)" stroke="var(--stroke-0, black)"/>
<defs>
<pattern id="pattern0_0_516" patternUnits="userSpaceOnUse" patternTransform="matrix(1473.5 0 0 507 -696.104 -213.353)" preserveAspectRatio="none" viewBox="-0.353516 -0.352676 1473.5 507" width="1" height="1">
<use xlink:href="#pattern0_0_516_inner" transform="translate(-1473.5 -507)"/>
<use xlink:href="#pattern0_0_516_inner" transform="translate(0 -507)"/>
<use xlink:href="#pattern0_0_516_inner" transform="translate(-1473.5 0)"/>
<g id="pattern0_0_516_inner">
<g id="Group 220">
<path id="Vector 63" d="M969 507L1473.5 0" stroke="var(--stroke-0, black)"/>
<path id="Vector 64" d="M952 507L1456.5 0" stroke="var(--stroke-0, black)"/>
<path id="Vector 65" d="M935 507L1439.5 0" stroke="var(--stroke-0, black)"/>
<path id="Vector 66" d="M918 507L1422.5 0" stroke="var(--stroke-0, black)"/>
<path id="Vector 67" d="M901 507L1405.5 0" stroke="var(--stroke-0, black)"/>
<path id="Vector 68" d="M884 507L1388.5 0" stroke="var(--stroke-0, black)"/>
<path id="Vector 69" d="M867 507L1371.5 0" stroke="var(--stroke-0, black)"/>
<path id="Vector 70" d="M850 507L1354.5 0" stroke="var(--stroke-0, black)"/>
<path id="Vector 71" d="M833 507L1337.5 0" stroke="var(--stroke-0, black)"/>
<path id="Vector 72" d="M816 507L1320.5 0" stroke="var(--stroke-0, black)"/>
<path id="Vector 73" d="M799 507L1303.5 0" stroke="var(--stroke-0, black)"/>
<path id="Vector 74" d="M782 507L1286.5 0" stroke="var(--stroke-0, black)"/>
<path id="Vector 75" d="M765 507L1269.5 0" stroke="var(--stroke-0, black)"/>
<path id="Vector 76" d="M748 507L1252.5 0" stroke="var(--stroke-0, black)"/>
<path id="Vector 77" d="M731 507L1235.5 0" stroke="var(--stroke-0, black)"/>
<path id="Vector 78" d="M714 507L1218.5 0" stroke="var(--stroke-0, black)"/>
<path id="Vector 79" d="M697 507L1201.5 0" stroke="var(--stroke-0, black)"/>
<path id="Vector 80" d="M680 507L1184.5 0" stroke="var(--stroke-0, black)"/>
<path id="Vector 81" d="M663 507L1167.5 0" stroke="var(--stroke-0, black)"/>
<path id="Vector 82" d="M646 507L1150.5 0" stroke="var(--stroke-0, black)"/>
<path id="Vector 83" d="M629 507L1133.5 0" stroke="var(--stroke-0, black)"/>
<path id="Vector 84" d="M612 507L1116.5 0" stroke="var(--stroke-0, black)"/>
<path id="Vector 85" d="M595 507L1099.5 0" stroke="var(--stroke-0, black)"/>
<path id="Vector 86" d="M578 507L1082.5 0" stroke="var(--stroke-0, black)"/>
<path id="Vector 87" d="M561 507L1065.5 0" stroke="var(--stroke-0, black)"/>
<path id="Vector 88" d="M544 507L1048.5 0" stroke="var(--stroke-0, black)"/>
<path id="Vector 89" d="M527 507L1031.5 0" stroke="var(--stroke-0, black)"/>
<path id="Vector 90" d="M510 507L1014.5 0" stroke="var(--stroke-0, black)"/>
<path id="Vector 91" d="M493 507L997.5 0" stroke="var(--stroke-0, black)"/>
<path id="Vector 92" d="M493 507L997.5 0" stroke="var(--stroke-0, black)"/>
<path id="Vector 93" d="M476 507L980.5 0" stroke="var(--stroke-0, black)"/>
<path id="Vector 94" d="M459 507L963.5 0" stroke="var(--stroke-0, black)"/>
<path id="Vector 95" d="M442 507L946.5 0" stroke="var(--stroke-0, black)"/>
<path id="Vector 96" d="M425 507L929.5 0" stroke="var(--stroke-0, black)"/>
<path id="Vector 97" d="M408 507L912.5 0" stroke="var(--stroke-0, black)"/>
<path id="Vector 98" d="M391 507L895.5 0" stroke="var(--stroke-0, black)"/>
<path id="Vector 99" d="M374 507L878.5 0" stroke="var(--stroke-0, black)"/>
<path id="Vector 100" d="M357 507L861.5 0" stroke="var(--stroke-0, black)"/>
<path id="Vector 101" d="M340 507L844.5 0" stroke="var(--stroke-0, black)"/>
<path id="Vector 102" d="M323 507L827.5 0" stroke="var(--stroke-0, black)"/>
<path id="Vector 103" d="M306 507L810.5 0" stroke="var(--stroke-0, black)"/>
<path id="Vector 104" d="M289 507L793.5 0" stroke="var(--stroke-0, black)"/>
<path id="Vector 105" d="M272 507L776.5 0" stroke="var(--stroke-0, black)"/>
<path id="Vector 106" d="M255 507L759.5 0" stroke="var(--stroke-0, black)"/>
<path id="Vector 107" d="M238 507L742.5 0" stroke="var(--stroke-0, black)"/>
<path id="Vector 108" d="M221 507L725.5 0" stroke="var(--stroke-0, black)"/>
<path id="Vector 109" d="M204 507L708.5 0" stroke="var(--stroke-0, black)"/>
<path id="Vector 110" d="M187 507L691.5 0" stroke="var(--stroke-0, black)"/>
<path id="Vector 111" d="M170 507L674.5 0" stroke="var(--stroke-0, black)"/>
<path id="Vector 112" d="M153 507L657.5 0" stroke="var(--stroke-0, black)"/>
<path id="Vector 113" d="M136 507L640.5 0" stroke="var(--stroke-0, black)"/>
<path id="Vector 114" d="M119 507L623.5 0" stroke="var(--stroke-0, black)"/>
<path id="Vector 115" d="M102 507L606.5 0" stroke="var(--stroke-0, black)"/>
<path id="Vector 116" d="M85 507L589.5 0" stroke="var(--stroke-0, black)"/>
<path id="Vector 117" d="M68 507L572.5 0" stroke="var(--stroke-0, black)"/>
<path id="Vector 118" d="M51 507L555.5 0" stroke="var(--stroke-0, black)"/>
<path id="Vector 119" d="M34 507L538.5 0" stroke="var(--stroke-0, black)"/>
<path id="Vector 120" d="M17 507L521.5 0" stroke="var(--stroke-0, black)"/>
<path id="Vector 121" d="M0 507L504.5 0" stroke="var(--stroke-0, black)"/>
</g>
</g>
</pattern></defs>
</svg>
