<svg width="40" height="40" viewBox="0 0 40 40" fill="none" xmlns="http://www.w3.org/2000/svg">
<rect width="40" height="40" fill="white"/>
<rect x="0.5" y="0.5" width="39" height="39" stroke="#0D0D0D"/>
<path d="M6.08735 22.7338C9.45263 17.2159 10.737 15.66 13.2458 12.1528C15.7547 8.64564 17.683 7.80018 18.599 7.07225C18.9633 7.15242 21.9817 5.55156 23.0648 6.88996C23.7315 7.71369 23.6053 8.853 23.595 9.54025C23.5896 9.90191 23.5244 10.2906 23.4001 10.8451C23.2758 11.3996 23.0792 12.1083 22.6832 13.0562C22.2872 14.0041 21.6978 15.1697 20.4658 16.921C19.2338 18.6723 17.3771 20.9741 16.1778 22.5998C14.9785 24.2256 14.4929 25.1055 14.2022 25.7923C13.7261 26.9171 11.7721 29.5807 13.8316 31.0947C16.3113 32.9176 20.2943 28.3355 21.1898 27.1494C22.0853 25.9633 23.1294 24.4459 23.6698 23.4806C25.8613 19.5656 27.6548 18.517 29.4356 19.1621C30.0843 19.3971 30.2696 20.2277 30.3996 20.7595C30.5329 21.3047 30.2549 21.9124 29.8732 22.663C29.6364 23.1286 29.2434 23.7378 28.8562 24.2946C27.6663 26.0056 26.3774 27.5221 27.9414 28.7348C28.1653 28.9084 28.7439 28.9224 29.5991 28.8707C30.0644 28.8064 30.5932 28.6647 31.1381 28.5187" stroke="#0D0D0D" stroke-linecap="round"/>
</svg>
