<svg width="30" height="30" viewBox="0 0 30 30" fill="none" xmlns="http://www.w3.org/2000/svg">
<path d="M12.8564 7C12.5608 7.60499 11.8653 8.41249 10.5908 8.84766C9.80223 9.11689 9.16632 9.12323 8.64941 9.05664C8.39842 9.0243 8.17605 8.9746 8.00195 8.9375C7.96812 8.93029 7.93661 8.92395 7.90723 8.91797C7.89167 8.95679 7.87148 8.99956 7.85352 9.04883C7.77776 9.25665 7.69946 9.50624 7.60938 9.78809C7.49165 10.1564 7.35248 10.5829 7.18359 10.9717C8.81218 11.6827 9.83383 12.3413 10.2666 13.7861C10.7316 15.3393 10.0977 17.0037 9.15234 18.1514C8.57137 18.8566 7.7643 19.3226 7.19238 19.5938L7.90234 20.9473C8.583 20.8681 9.77916 20.8148 11.1367 20.9961C12.0246 21.1147 12.9482 21.5031 13.7227 21.918C14.3253 22.2408 14.8605 22.5924 15.25 22.8779C15.6401 22.6059 16.1661 22.267 16.7383 21.9502C17.4712 21.5445 18.3212 21.1512 19.0723 21.002C20.2553 20.7669 21.5883 20.7172 22.3564 20.7207L22.833 19.4873C22.5969 19.4067 22.3206 19.2993 22.0342 19.1729C21.4683 18.923 20.8245 18.5863 20.3613 18.2295C19.6807 17.7051 19.478 16.997 19.4297 16.2656C19.406 15.9066 19.4183 15.5236 19.4346 15.1396C19.4511 14.7481 19.4717 14.3502 19.4717 13.9287C19.4718 13.4412 19.6762 12.9871 19.9463 12.5957C20.2188 12.2008 20.5847 11.8312 20.9717 11.5029C21.5694 10.9959 22.2537 10.5566 22.8174 10.2432L22.0996 8.93945C21.7818 8.99278 21.3352 9.06372 20.8633 9.09668C20.191 9.14363 19.3617 9.12794 18.7178 8.82715C18.2755 8.6205 17.8944 8.23435 17.6123 7.84863C17.4162 7.58056 17.2483 7.28481 17.1299 7H12.8564Z" fill="white" stroke="#0D0D0D" stroke-linecap="round" stroke-linejoin="round"/>
<path d="M11.7298 14.2676C11.7579 14.1486 11.8879 14.075 11.9435 13.9705C12.0119 13.8408 12.0332 13.6555 12.1575 13.5467C12.2793 13.4404 12.42 13.3584 12.5643 13.3043C12.7099 13.2493 12.8568 13.2227 12.9981 13.2158C13.1404 13.2087 13.2766 13.2214 13.4079 13.246C13.4982 13.2626 13.5805 13.2853 13.6666 13.3113C13.7019 13.3229 13.7373 13.3351 13.773 13.348C13.7997 13.3576 13.8265 13.3675 13.8534 13.3777C13.8571 13.3792 13.8607 13.3851 13.8634 13.3944C13.866 13.4038 13.8675 13.4159 13.8675 13.4283C13.8675 13.4408 13.866 13.4528 13.8634 13.4622C13.8609 13.4715 13.8574 13.4774 13.8538 13.4788C13.8275 13.4889 13.8018 13.4993 13.7769 13.5101C13.7491 13.5219 13.7222 13.5342 13.6961 13.5467C13.6891 13.496 13.6809 13.4577 13.6687 13.4413C13.6626 13.4329 13.6529 13.4299 13.6472 13.4399C13.6419 13.4488 13.6386 13.4643 13.6356 13.479C13.6325 13.4944 13.6296 13.5091 13.6248 13.5146C13.6168 13.5239 13.6104 13.5462 13.604 13.5696C13.6016 13.5782 13.5993 13.5869 13.5969 13.5951C13.5721 13.6079 13.5481 13.6209 13.525 13.6341C13.5148 13.6299 13.5059 13.6266 13.4984 13.6298C13.4917 13.6326 13.4868 13.6442 13.4825 13.6584C13.4788 13.6605 13.4751 13.6626 13.4714 13.6648C13.4478 13.6785 13.4252 13.6924 13.4035 13.7065C13.3822 13.6967 13.3619 13.6873 13.3339 13.6876C13.3221 13.6877 13.3095 13.6831 13.2972 13.6788C13.2792 13.6724 13.2622 13.6667 13.2516 13.6772C13.2445 13.6842 13.2339 13.6797 13.2233 13.6753C13.2089 13.6694 13.1951 13.6634 13.1896 13.6857C13.1864 13.6997 13.1848 13.7159 13.1835 13.731C13.1814 13.755 13.1801 13.7759 13.1739 13.7794C13.1621 13.7861 13.1568 13.8052 13.1527 13.8219C13.1477 13.842 13.1443 13.8588 13.1309 13.8474C13.1288 13.8457 13.1263 13.8433 13.1235 13.8406C13.1091 13.8263 13.0829 13.8046 13.0705 13.828C13.066 13.8364 13.066 13.8531 13.0664 13.8693C13.0668 13.8931 13.068 13.9158 13.0555 13.9115C13.0536 13.9109 13.0497 13.9062 13.0461 13.902C13.0416 13.8966 13.0376 13.8919 13.0391 13.897C13.0435 13.9118 13.0475 13.9286 13.052 13.9469C13.0553 13.9603 13.059 13.9744 13.0633 13.9891C13.0464 14.0075 13.0309 14.0256 13.0166 14.0433C13.01 14.0515 13.0039 14.0595 12.9975 14.0677C12.9806 14.0513 12.9646 14.0372 12.951 14.0275C12.9332 14.0149 12.9214 14.0156 12.9062 14.0166C12.8951 14.0174 12.8821 14.0184 12.8631 14.0152C12.8276 14.0094 12.811 14.0316 12.809 14.0527C12.8085 14.0572 12.8081 14.0618 12.8079 14.0668C12.807 14.0857 12.8061 14.1092 12.7981 14.1442C12.7908 14.1772 12.7793 14.198 12.7704 14.2146C12.7659 14.2229 12.7623 14.2299 12.7609 14.2362C12.7585 14.247 12.7546 14.2594 12.751 14.2718C12.7452 14.2914 12.7401 14.3113 12.7417 14.3251C12.7423 14.33 12.7434 14.3354 12.7446 14.3412C12.7481 14.3573 12.7525 14.3765 12.7501 14.3977C12.7475 14.42 12.737 14.4291 12.7202 14.4365C12.7133 14.4395 12.6935 14.436 12.673 14.4327C12.6438 14.428 12.6131 14.424 12.6168 14.4381C12.6177 14.4413 12.6209 14.4457 12.6242 14.4503C12.6304 14.4587 12.6373 14.4677 12.6312 14.4717C12.629 14.473 12.6234 14.4728 12.6179 14.4726C12.6119 14.4724 12.606 14.4723 12.6049 14.4743C12.6008 14.4817 12.5992 14.4899 12.5978 14.4972C12.596 14.5066 12.5946 14.5145 12.5887 14.5177C12.578 14.5234 12.5819 14.535 12.5861 14.5466C12.5893 14.5555 12.5927 14.5644 12.5895 14.5711C12.5805 14.5903 12.5862 14.6225 12.602 14.6568C12.608 14.6698 12.5941 14.6762 12.5762 14.6851C12.5651 14.6907 12.5525 14.6971 12.5424 14.7066C12.5366 14.712 12.5461 14.7194 12.555 14.7261C12.5631 14.7323 12.5707 14.738 12.5652 14.7414C12.5604 14.7444 12.5421 14.7436 12.5248 14.7429C12.5054 14.7421 12.4873 14.7415 12.49 14.7463C12.4915 14.7489 12.4999 14.7531 12.51 14.758C12.514 14.76 12.5182 14.7621 12.5224 14.7642C12.5188 14.7636 12.5155 14.763 12.5131 14.7626C12.4958 14.7597 12.4859 14.7624 12.4763 14.7652C12.4724 14.7663 12.4686 14.7674 12.4644 14.7682C12.4488 14.7709 12.4448 14.7804 12.4444 14.7879C12.4442 14.7911 12.4384 14.7932 12.4317 14.7957C12.4257 14.7979 12.4189 14.8004 12.4146 14.8042C12.4122 14.8064 12.4069 14.8076 12.4024 14.8086C12.3992 14.8094 12.3965 14.81 12.3957 14.8108C12.395 14.8115 12.3999 14.8128 12.4054 14.8143C12.4094 14.8153 12.4137 14.8164 12.4165 14.8175C12.4231 14.82 12.4249 14.8224 12.4226 14.8235C12.4214 14.8241 12.4194 14.8244 12.4174 14.8247C12.4151 14.825 12.4127 14.8253 12.4118 14.8261C12.4077 14.8296 12.4129 14.8341 12.4184 14.8388C12.4244 14.8439 12.4306 14.8492 12.425 14.8536C12.4232 14.855 12.4194 14.8563 12.4156 14.8576C12.4117 14.8589 12.408 14.8601 12.4069 14.8615C12.4024 14.8668 12.4143 14.8736 12.4253 14.8797C12.4326 14.8838 12.4395 14.8876 12.4408 14.8907C12.4433 14.8962 12.4581 14.9005 12.469 14.9036C12.4746 14.9052 12.4792 14.9065 12.4806 14.9075C12.4801 14.9083 12.4795 14.9091 12.4789 14.9099C12.4777 14.9105 12.4765 14.9112 12.4768 14.912C12.4768 14.9121 12.4769 14.9121 12.4769 14.9122C12.4729 14.9165 12.4673 14.9205 12.4618 14.9247C12.4493 14.9341 12.437 14.9436 12.4427 14.955C12.4439 14.9575 12.45 14.9603 12.4561 14.9632C12.4637 14.9666 12.4714 14.9702 12.4706 14.9732C12.4688 14.9805 12.4581 14.9872 12.4476 14.994C12.4318 15.0043 12.4164 15.0143 12.4322 15.0253C12.4375 15.0289 12.4463 15.0326 12.4552 15.0362C12.4602 15.0382 12.4652 15.0402 12.4696 15.0422C12.4613 15.0415 12.4536 15.041 12.4464 15.0405C12.4315 15.0396 12.4188 15.0387 12.4081 15.0365C12.3827 15.0313 12.3477 15.0249 12.322 15.0244C12.3151 15.0243 12.3073 15.0238 12.2995 15.0234C12.2799 15.0222 12.2599 15.021 12.2507 15.0248C12.2445 15.0274 12.2302 15.0341 12.2451 15.0393C12.2483 15.0404 12.2547 15.0412 12.2619 15.0421C12.2748 15.0438 12.29 15.0457 12.2935 15.0501C12.294 15.0509 12.2946 15.0517 12.295 15.0525C12.2969 15.0558 12.2991 15.0595 12.3094 15.0611C12.3213 15.063 12.335 15.063 12.351 15.0631C12.3719 15.0632 12.3966 15.0634 12.4263 15.0674C12.4322 15.0682 12.4342 15.0694 12.4357 15.0704C12.4367 15.0711 12.4376 15.0716 12.4394 15.0717C12.4414 15.0718 12.4456 15.0717 12.451 15.0716C12.4699 15.0711 12.503 15.0705 12.5043 15.077C12.5046 15.0788 12.503 15.0807 12.5015 15.0825C12.4993 15.0851 12.4976 15.0873 12.503 15.0877C12.505 15.0878 12.5072 15.088 12.5095 15.0881C12.5089 15.0902 12.5082 15.0923 12.5075 15.0943C12.501 15.0969 12.5015 15.1007 12.5021 15.1055C12.5023 15.1066 12.5024 15.1078 12.5025 15.1091C12.5011 15.1132 12.4997 15.1174 12.4983 15.1217C12.4956 15.125 12.4911 15.1286 12.484 15.1324C12.4698 15.1399 12.4464 15.1466 12.4236 15.1532C12.414 15.156 12.4044 15.1588 12.3957 15.1617C12.3946 15.1606 12.3934 15.1596 12.3916 15.1588C12.3797 15.1536 12.3562 15.1516 12.3346 15.1496C12.3202 15.1483 12.3066 15.1471 12.2979 15.145C12.2819 15.1412 12.2631 15.1415 12.2493 15.1418C12.2421 15.1419 12.2362 15.142 12.2327 15.1415C12.2299 15.1411 12.2286 15.1401 12.2272 15.1391C12.226 15.1382 12.2248 15.1373 12.2225 15.1368C12.1951 15.1297 12.1792 15.1316 12.156 15.1347C12.1432 15.1363 12.1282 15.1383 12.1079 15.1392C12.0863 15.1399 12.08 15.1396 12.0714 15.1358C12.0608 15.1387 12.0501 15.1417 12.0395 15.1447C12.0402 15.1459 12.0468 15.1468 12.0579 15.148C12.0776 15.1502 12.0849 15.1574 12.0905 15.1629C12.0931 15.1655 12.0954 15.1677 12.0985 15.169C12.1146 15.1756 12.137 15.1734 12.1567 15.1716C12.1676 15.1706 12.1776 15.1697 12.1854 15.1703C12.1887 15.1705 12.192 15.1701 12.1953 15.1697C12.1979 15.1693 12.2005 15.169 12.2032 15.169C12.2229 15.1688 12.2375 15.1725 12.251 15.1759C12.2588 15.1778 12.2663 15.1797 12.2741 15.1807C12.2765 15.181 12.2789 15.1812 12.2813 15.1814C12.2848 15.1817 12.2881 15.182 12.2909 15.1825C12.2973 15.1837 12.3017 15.1861 12.3064 15.1887C12.3089 15.1901 12.3114 15.1915 12.3144 15.1928C12.3183 15.1945 12.3261 15.1951 12.3342 15.1956C12.3399 15.196 12.3458 15.1964 12.3507 15.1972C12.3596 15.1987 12.3628 15.202 12.3658 15.205C12.3671 15.2063 12.3684 15.2075 12.3701 15.2086C12.3707 15.209 12.3721 15.2092 12.3739 15.2092C12.3802 15.2141 12.3865 15.219 12.3928 15.2235C12.4242 15.2467 12.4516 15.2656 12.4335 15.2961C12.4301 15.3018 12.4311 15.3082 12.4344 15.3143C12.4277 15.3349 12.4209 15.3554 12.4141 15.3758C12.3966 15.3808 12.3821 15.3866 12.3709 15.3931C12.3498 15.4055 12.346 15.4178 12.3415 15.4316C12.3382 15.4419 12.3345 15.4533 12.3234 15.4671C12.3045 15.4897 12.2893 15.5153 12.2827 15.5414C12.2761 15.5671 12.2726 15.5976 12.2726 15.6188C12.2726 15.6302 12.2582 15.6437 12.2448 15.6561C12.226 15.6741 12.2093 15.6913 12.2371 15.6966C12.246 15.6984 12.2611 15.6993 12.2758 15.7001C12.2863 15.7007 12.2966 15.7013 12.3043 15.7021C12.3025 15.7071 12.3008 15.7119 12.299 15.7168C12.282 15.7265 12.2647 15.7433 12.2861 15.7538C12.2843 15.7591 12.2825 15.7643 12.2806 15.7694C12.2767 15.7806 12.2724 15.7897 12.2685 15.8018C12.2672 15.8056 12.2659 15.8095 12.2645 15.8133C12.2645 15.8133 12.2645 15.8133 12.2645 15.8134C12.2618 15.821 12.259 15.8285 12.2562 15.8356C12.255 15.8387 12.2538 15.8417 12.2526 15.8447C12.2494 15.852 12.2464 15.8607 12.2433 15.8692C12.2416 15.8737 12.2399 15.8781 12.2382 15.8824C12.2354 15.8894 12.2324 15.8961 12.2294 15.9025C12.2247 15.9145 12.2197 15.9275 12.2141 15.938C12.2132 15.9398 12.2103 15.9415 12.2057 15.9427C12.2012 15.9439 12.1955 15.9445 12.1897 15.9445C12.1838 15.9445 12.1781 15.9439 12.1736 15.9428C12.1691 15.9418 12.1661 15.9404 12.1652 15.939C12.1594 15.93 12.1532 15.919 12.1469 15.9088C12.1431 15.9035 12.1392 15.8978 12.1353 15.8919C12.1329 15.8883 12.1305 15.8846 12.128 15.8808C12.1234 15.8735 12.1187 15.866 12.1142 15.8599C12.1124 15.8574 12.1106 15.8548 12.1088 15.8522C12.1046 15.8461 12.1003 15.8396 12.0961 15.833C12.096 15.833 12.096 15.8329 12.096 15.8329C12.0939 15.8296 12.0918 15.8263 12.0897 15.823C12.0832 15.8125 12.0771 15.8047 12.0708 15.7948C12.0674 15.7898 12.0641 15.7845 12.0607 15.7792C12.0589 15.7762 12.057 15.7732 12.0551 15.7702C12.0541 15.7686 12.0531 15.7669 12.0521 15.7652C12.0289 15.7298 12.0061 15.6905 11.9847 15.6544C11.963 15.6157 11.9425 15.579 11.9229 15.5391C11.9033 15.5001 11.8848 15.4609 11.8675 15.4204C11.7577 15.1655 11.6828 14.8839 11.6904 14.5771C11.6915 14.5336 11.6947 14.4885 11.6996 14.4441C11.7046 14.3994 11.7113 14.3552 11.7206 14.3099C11.7234 14.2961 11.7264 14.2821 11.7298 14.2676ZM15.5038 18.5749C15.5356 18.4563 15.6676 18.3856 15.7254 18.2817C15.7968 18.1526 15.8197 17.9681 15.9445 17.8597C16.067 17.7533 16.207 17.6706 16.3529 17.614C16.498 17.5576 16.6494 17.5269 16.7919 17.5183C16.9375 17.5086 17.0767 17.5195 17.2105 17.5428C17.3039 17.5584 17.3869 17.5808 17.4756 17.6063C17.5117 17.6178 17.5479 17.6299 17.5845 17.6426C17.6117 17.6522 17.6391 17.6621 17.6666 17.6723C17.6704 17.6737 17.6741 17.6796 17.6768 17.689C17.6795 17.6984 17.681 17.7104 17.681 17.7229C17.681 17.7353 17.6795 17.7474 17.6769 17.7568C17.6742 17.7661 17.6707 17.7719 17.667 17.7734C17.6402 17.7835 17.614 17.7939 17.5885 17.8047C17.5602 17.8166 17.5327 17.829 17.5061 17.8416C17.4988 17.7909 17.4905 17.7526 17.4779 17.7363C17.471 17.728 17.4616 17.725 17.4557 17.735C17.4503 17.7439 17.447 17.7594 17.444 17.7742C17.4408 17.7896 17.4379 17.8043 17.433 17.8098C17.4249 17.8192 17.4184 17.8415 17.4119 17.865C17.4096 17.8735 17.4072 17.8822 17.4048 17.8905C17.3795 17.9034 17.3551 17.9166 17.3316 17.93C17.3213 17.9259 17.3119 17.9227 17.304 17.926C17.2972 17.9289 17.2922 17.9405 17.2879 17.9547C17.2842 17.9569 17.2804 17.9591 17.2767 17.9612C17.2528 17.9752 17.2298 17.9893 17.2077 18.0037C17.1863 17.9941 17.1648 17.985 17.1363 17.9857C17.1243 17.9859 17.1114 17.9815 17.099 17.9773C17.0807 17.9712 17.0633 17.9657 17.0525 17.9764C17.0453 17.9835 17.0346 17.9791 17.0237 17.9748C17.0094 17.969 16.9939 17.9638 16.9888 17.9861C16.9856 18.0001 16.9841 18.0164 16.9828 18.0315C16.9808 18.0556 16.9797 18.0765 16.9733 18.0802C16.9613 18.0871 16.956 18.1063 16.9519 18.1231C16.9468 18.1434 16.9434 18.1603 16.9297 18.1491C16.9276 18.1474 16.925 18.1451 16.922 18.1425C16.9064 18.1287 16.8803 18.1072 16.8675 18.131C16.863 18.1395 16.863 18.1562 16.8634 18.1726C16.8638 18.1964 16.8651 18.2193 16.8523 18.2152C16.8503 18.2146 16.8463 18.21 16.8427 18.2058C16.838 18.2005 16.8339 18.1959 16.8355 18.2009C16.84 18.2157 16.844 18.2326 16.8485 18.2509C16.8518 18.2644 16.8553 18.2786 16.8596 18.2934C16.8423 18.3122 16.8262 18.3309 16.8113 18.3493C16.8044 18.3577 16.7978 18.366 16.7909 18.3747C16.7738 18.3585 16.7575 18.3446 16.7436 18.3352C16.7255 18.3229 16.7133 18.3239 16.6978 18.3253C16.6863 18.3264 16.673 18.3278 16.6535 18.325C16.6167 18.3204 16.5997 18.343 16.597 18.3647C16.5964 18.3693 16.596 18.374 16.5956 18.3791C16.5944 18.3984 16.5925 18.4227 16.5834 18.4588C16.575 18.4929 16.5621 18.5151 16.5525 18.5324C16.5476 18.5411 16.5437 18.5484 16.542 18.555C16.5391 18.5663 16.5347 18.5792 16.5304 18.5923C16.5236 18.6128 16.5176 18.6337 16.5186 18.6481C16.5189 18.6532 16.5198 18.6589 16.5208 18.665C16.5236 18.6818 16.5271 18.702 16.5237 18.7243C16.52 18.7478 16.5089 18.7574 16.4915 18.7652C16.4844 18.7685 16.4646 18.7648 16.444 18.7613C16.4148 18.7563 16.3839 18.7519 16.3871 18.7666C16.3878 18.77 16.3909 18.7746 16.3941 18.7794C16.3999 18.7882 16.4064 18.7976 16.4001 18.8017C16.3979 18.8031 16.3922 18.8029 16.3867 18.8026C16.3807 18.8023 16.3747 18.8021 16.3735 18.8042C16.3691 18.8119 16.3671 18.8204 16.3654 18.828C16.3632 18.8377 16.3615 18.8459 16.3553 18.8492C16.3444 18.855 16.3478 18.8671 16.3515 18.8792C16.3543 18.8885 16.3573 18.8978 16.3539 18.9047C16.3439 18.9246 16.3482 18.9581 16.3626 18.9941C16.368 19.0077 16.3538 19.0141 16.3355 19.0229C16.3241 19.0284 16.3112 19.0347 16.3006 19.0442C16.2947 19.0496 16.3039 19.0576 16.3124 19.0648C16.3203 19.0715 16.3277 19.0775 16.322 19.0809C16.317 19.0839 16.2988 19.0825 16.2815 19.0813C16.2622 19.0799 16.244 19.0787 16.2466 19.0838C16.2479 19.0864 16.2562 19.0911 16.2661 19.0965C16.27 19.0986 16.2741 19.1009 16.2782 19.1033C16.2746 19.1025 16.2714 19.1018 16.2689 19.1013C16.2517 19.0978 16.2418 19.1003 16.232 19.1029C16.2281 19.1039 16.2243 19.1049 16.22 19.1056C16.2042 19.1079 16.1999 19.1175 16.1992 19.1253C16.1989 19.1286 16.193 19.1305 16.1861 19.1328C16.18 19.1349 16.1731 19.1373 16.1687 19.1411C16.1661 19.1432 16.1608 19.1443 16.1563 19.1452C16.1531 19.1458 16.1503 19.1464 16.1495 19.1472C16.1488 19.1479 16.1536 19.1494 16.1591 19.1511C16.163 19.1523 16.1673 19.1536 16.17 19.1548C16.1765 19.1576 16.1782 19.16 16.1758 19.1612C16.1747 19.1617 16.1727 19.1619 16.1706 19.1621C16.1683 19.1624 16.1659 19.1627 16.165 19.1634C16.1607 19.1669 16.1657 19.1717 16.171 19.1767C16.1768 19.1822 16.1828 19.1878 16.177 19.1922C16.1751 19.1936 16.1712 19.1948 16.1675 19.1959C16.1635 19.1971 16.1597 19.1983 16.1585 19.1996C16.1538 19.205 16.1654 19.2124 16.1761 19.2191C16.1833 19.2236 16.19 19.2277 16.1912 19.2309C16.1935 19.2367 16.2081 19.2416 16.2188 19.2451C16.2244 19.247 16.229 19.2485 16.2303 19.2496C16.2297 19.2504 16.2291 19.2512 16.2285 19.252C16.2273 19.2526 16.226 19.2533 16.2263 19.2541C16.2263 19.2541 16.2264 19.2542 16.2264 19.2543C16.2222 19.2586 16.2164 19.2626 16.2107 19.2666C16.1979 19.2758 16.1852 19.2852 16.1904 19.2971C16.1916 19.2996 16.1975 19.3028 16.2035 19.3059C16.2109 19.3098 16.2184 19.3137 16.2175 19.3168C16.2154 19.3242 16.2044 19.3308 16.1937 19.3373C16.1774 19.3472 16.1616 19.3571 16.177 19.3688C16.1821 19.3727 16.1908 19.3768 16.1995 19.3808C16.2044 19.3831 16.2093 19.3854 16.2136 19.3876C16.2054 19.3865 16.1977 19.3857 16.1905 19.385C16.1757 19.3834 16.1631 19.3821 16.1524 19.3794C16.1273 19.3731 16.0926 19.3652 16.0669 19.3637C16.06 19.3633 16.0523 19.3625 16.0445 19.3618C16.025 19.3598 16.005 19.3578 15.9957 19.3614C15.9894 19.3638 15.9748 19.3701 15.9894 19.376C15.9926 19.3772 15.999 19.3783 16.0061 19.3796C16.0189 19.3818 16.0341 19.3844 16.0373 19.389C16.0379 19.3898 16.0384 19.3906 16.0388 19.3915C16.0406 19.3949 16.0425 19.3988 16.0528 19.4008C16.0646 19.4032 16.0783 19.4038 16.0943 19.4045C16.1151 19.4054 16.1399 19.4065 16.1694 19.4118C16.1752 19.4128 16.1771 19.4142 16.1786 19.4152C16.1796 19.416 16.1805 19.4165 16.1822 19.4167C16.1843 19.4169 16.1885 19.417 16.1939 19.417C16.2128 19.4173 16.2459 19.4179 16.2469 19.4247C16.2471 19.4265 16.2454 19.4285 16.2439 19.4302C16.2416 19.4328 16.2398 19.435 16.2451 19.4356C16.2472 19.4358 16.2494 19.4361 16.2517 19.4363C16.2509 19.4384 16.2501 19.4405 16.2494 19.4426C16.2428 19.445 16.2431 19.4489 16.2436 19.4538C16.2437 19.455 16.2438 19.4563 16.2438 19.4576C16.2422 19.4618 16.2407 19.4659 16.2391 19.4702C16.2362 19.4735 16.2316 19.477 16.2244 19.4806C16.2099 19.4878 16.1862 19.4937 16.1631 19.4996C16.1534 19.5021 16.1438 19.5046 16.1349 19.5072C16.1339 19.506 16.1327 19.505 16.131 19.5041C16.1192 19.4983 16.0959 19.4953 16.0743 19.4924C16.06 19.4905 16.0465 19.4887 16.0379 19.4862C16.022 19.4817 16.0033 19.4813 15.9894 19.481C15.9822 19.4809 15.9764 19.4807 15.9729 19.4801C15.9701 19.4795 15.9688 19.4785 15.9675 19.4774C15.9664 19.4765 15.9652 19.4755 15.9629 19.4748C15.9358 19.4665 15.9198 19.4679 15.8965 19.4701C15.8837 19.4713 15.8686 19.4727 15.8482 19.4728C15.8267 19.4727 15.8204 19.4722 15.812 19.4679C15.8012 19.4705 15.7905 19.4731 15.7797 19.4757C15.7804 19.477 15.787 19.4781 15.798 19.4798C15.8176 19.4829 15.8245 19.4905 15.83 19.4964C15.8325 19.4991 15.8347 19.5015 15.8377 19.5029C15.8535 19.5103 15.876 19.509 15.8958 19.5079C15.9067 19.5073 15.9167 19.5067 15.9244 19.5077C15.9277 19.5081 15.931 19.5078 15.9344 19.5075C15.937 19.5072 15.9396 19.507 15.9423 19.5071C15.962 19.5076 15.9764 19.512 15.9898 19.516C15.9975 19.5183 16.0049 19.5205 16.0127 19.5218C16.0151 19.5222 16.0175 19.5226 16.0198 19.5229C16.0233 19.5233 16.0266 19.5238 16.0294 19.5244C16.0358 19.5258 16.04 19.5285 16.0447 19.5314C16.047 19.5329 16.0495 19.5344 16.0525 19.5359C16.0563 19.5378 16.064 19.5386 16.0721 19.5395C16.0778 19.5402 16.0837 19.5408 16.0886 19.5418C16.0973 19.5437 16.1004 19.5472 16.1033 19.5504C16.1046 19.5518 16.1058 19.5531 16.1074 19.5542C16.1081 19.5547 16.1094 19.5549 16.1113 19.555C16.1173 19.5602 16.1235 19.5654 16.1296 19.5703C16.16 19.5953 16.1866 19.6158 16.1674 19.6463C16.1638 19.6521 16.1645 19.6583 16.1675 19.6648C16.1601 19.6856 16.1525 19.7064 16.1449 19.7269C16.1273 19.7314 16.1126 19.7367 16.1011 19.7429C16.0795 19.7542 16.0753 19.767 16.0703 19.7809C16.0666 19.7913 16.0625 19.8029 16.0508 19.8165C16.0312 19.8389 16.015 19.864 16.0075 19.8907C16 19.9168 15.9955 19.9473 15.9948 19.9691C15.9944 19.9808 15.9795 19.994 15.9657 20.0062C15.9463 20.0233 15.9291 20.0408 15.9567 20.0471C15.9655 20.0492 15.9807 20.0507 15.9954 20.052C16.0058 20.053 16.016 20.054 16.0237 20.0551C16.0218 20.0601 16.0199 20.065 16.018 20.0699C16.0008 20.0793 15.9829 20.0953 16.0041 20.1068C16.0021 20.1122 16.0001 20.1175 15.998 20.1225C15.9938 20.1338 15.9894 20.1433 15.9851 20.1549C15.9837 20.1588 15.9823 20.1626 15.9808 20.1665C15.9808 20.1665 15.9808 20.1665 15.9808 20.1666C15.9779 20.1743 15.975 20.1818 15.972 20.189C15.9707 20.1921 15.9694 20.1951 15.9681 20.1982C15.9648 20.2055 15.9616 20.2138 15.9583 20.2226C15.9565 20.227 15.9548 20.2315 15.953 20.2358C15.95 20.2428 15.947 20.2495 15.9439 20.256C15.939 20.2676 15.9339 20.281 15.9283 20.2914C15.9274 20.2931 15.9244 20.2948 15.9199 20.296C15.9154 20.2972 15.9097 20.2978 15.9038 20.2978C15.8979 20.2978 15.8922 20.2972 15.8877 20.2961C15.8832 20.2951 15.8803 20.2937 15.8793 20.2921C15.8736 20.283 15.8675 20.2713 15.8613 20.2611C15.8576 20.2555 15.8538 20.2496 15.8499 20.2434C15.8476 20.2396 15.8452 20.2357 15.8429 20.2318C15.8384 20.224 15.8339 20.2166 15.8295 20.2101C15.8277 20.2075 15.826 20.2047 15.8242 20.202C15.8201 20.1956 15.816 20.1888 15.8119 20.1818C15.8119 20.1818 15.8119 20.1817 15.8118 20.1817C15.8098 20.1782 15.8078 20.1748 15.8057 20.1713C15.7996 20.1607 15.7937 20.1521 15.7876 20.1418C15.7844 20.1366 15.7812 20.131 15.778 20.1254C15.7762 20.1223 15.7744 20.1191 15.7726 20.116C15.7716 20.1142 15.7707 20.1125 15.7697 20.1107C15.7476 20.0739 15.726 20.0327 15.7057 19.9947C15.6853 19.9539 15.6662 19.916 15.6479 19.8741C15.6298 19.8339 15.6128 19.7923 15.597 19.7506C15.4969 19.4854 15.4343 19.1955 15.4536 18.8856C15.4563 18.8418 15.4612 18.7963 15.4677 18.7516C15.4743 18.7068 15.4825 18.6625 15.4933 18.6172C15.4965 18.6033 15.5 18.5894 15.5038 18.5749ZM15.5437 14.268C15.5717 14.149 15.7017 14.0753 15.7573 13.9707C15.8256 13.841 15.8468 13.6557 15.9711 13.5469C16.0929 13.4405 16.2336 13.3584 16.3779 13.3044C16.5235 13.2493 16.6704 13.2227 16.8116 13.2158C16.9539 13.2087 17.0902 13.2214 17.2214 13.246C17.3117 13.2626 17.3941 13.2853 17.4801 13.3113C17.5154 13.3229 17.5508 13.3351 17.5865 13.348C17.6132 13.3576 17.64 13.3675 17.6669 13.3777C17.6706 13.3792 17.6743 13.3851 17.6769 13.3944C17.6796 13.4038 17.681 13.4159 17.681 13.4283C17.681 13.4408 17.6795 13.4528 17.677 13.4622C17.6744 13.4715 17.6709 13.4774 17.6673 13.4788C17.641 13.4889 17.6154 13.4993 17.5904 13.5101C17.5626 13.5219 17.5358 13.5342 17.5096 13.5467C17.5026 13.496 17.4944 13.4577 17.4822 13.4413C17.4761 13.4329 17.4665 13.4299 17.4607 13.4399C17.4555 13.4488 17.4522 13.4643 17.4492 13.479C17.446 13.4944 17.4431 13.5091 17.4384 13.5146C17.4303 13.5239 17.4239 13.5462 17.4175 13.5696C17.4152 13.5782 17.4128 13.5869 17.4104 13.5951C17.3856 13.6079 17.3617 13.6209 17.3385 13.6341C17.3284 13.6299 17.3195 13.6266 17.312 13.6298C17.3052 13.6326 17.3003 13.6442 17.296 13.6584C17.2923 13.6605 17.2887 13.6626 17.285 13.6648C17.2614 13.6785 17.2387 13.6924 17.217 13.7065C17.1958 13.6967 17.1755 13.6873 17.1475 13.6876C17.1357 13.6877 17.123 13.6831 17.1108 13.6788C17.0928 13.6724 17.0758 13.6667 17.0651 13.6772C17.0581 13.6842 17.0475 13.6797 17.0369 13.6752C17.0225 13.6693 17.0087 13.6634 17.0032 13.6857C17 13.6997 16.9984 13.7159 16.9971 13.731C16.995 13.755 16.9937 13.7759 16.9875 13.7794C16.9757 13.7861 16.9704 13.8052 16.9663 13.8219C16.9613 13.842 16.9579 13.8588 16.9445 13.8474C16.9425 13.8457 16.94 13.8433 16.9371 13.8406C16.9227 13.8263 16.8966 13.8046 16.8841 13.828C16.8797 13.8363 16.8797 13.853 16.88 13.8693C16.8804 13.8931 16.8817 13.9158 16.8691 13.9115C16.8673 13.9108 16.8634 13.9062 16.8598 13.902C16.8552 13.8966 16.8512 13.8919 16.8527 13.897C16.8572 13.9118 16.8611 13.9286 16.8656 13.9469C16.869 13.9603 16.8727 13.9744 16.877 13.9891C16.8601 14.0074 16.8446 14.0255 16.8303 14.0433C16.8237 14.0515 16.8176 14.0594 16.8112 14.0677C16.7943 14.0513 16.7783 14.0371 16.7647 14.0275C16.747 14.0149 16.7351 14.0155 16.72 14.0166C16.7088 14.0174 16.6959 14.0184 16.6769 14.0151C16.6413 14.0094 16.6248 14.0316 16.6227 14.0526C16.6222 14.0571 16.6219 14.0618 16.6216 14.0668C16.6208 14.0857 16.6198 14.1091 16.6119 14.1441C16.6046 14.1771 16.5931 14.198 16.5842 14.2145C16.5798 14.2229 16.5762 14.2298 16.5748 14.2362C16.5724 14.247 16.5685 14.2593 16.5649 14.2717C16.559 14.2913 16.554 14.3112 16.5556 14.325C16.5562 14.3299 16.5573 14.3353 16.5585 14.3411C16.562 14.3572 16.5664 14.3764 16.564 14.3976C16.5615 14.4199 16.551 14.429 16.5341 14.4364C16.5273 14.4394 16.5075 14.4359 16.4869 14.4327C16.4578 14.4279 16.427 14.424 16.4308 14.438C16.4317 14.4412 16.4349 14.4457 16.4382 14.4502C16.4444 14.4587 16.4513 14.4676 16.4451 14.4716C16.443 14.473 16.4374 14.4728 16.4319 14.4726C16.4259 14.4724 16.42 14.4722 16.4189 14.4742C16.4148 14.4816 16.4132 14.4898 16.4118 14.4971C16.41 14.5065 16.4087 14.5144 16.4027 14.5176C16.392 14.5233 16.396 14.535 16.4002 14.5466C16.4034 14.5554 16.4067 14.5643 16.4036 14.571C16.3946 14.5902 16.4002 14.6224 16.4161 14.6567C16.4221 14.6697 16.4082 14.6761 16.3903 14.6851C16.3793 14.6906 16.3666 14.6971 16.3565 14.7065C16.3507 14.7119 16.3603 14.7193 16.3691 14.726C16.3773 14.7322 16.3848 14.7379 16.3793 14.7413C16.3745 14.7443 16.3562 14.7435 16.3389 14.7428C16.3196 14.7421 16.3014 14.7415 16.3042 14.7463C16.3056 14.7488 16.3141 14.753 16.3242 14.758C16.3281 14.7599 16.3324 14.762 16.3365 14.7642C16.3329 14.7635 16.3297 14.7629 16.3272 14.7625C16.3099 14.7597 16.3001 14.7624 16.2904 14.7652C16.2866 14.7663 16.2828 14.7674 16.2785 14.7682C16.2629 14.7709 16.259 14.7803 16.2586 14.7879C16.2584 14.7911 16.2526 14.7932 16.2458 14.7957C16.2398 14.7979 16.233 14.8004 16.2288 14.8042C16.2263 14.8064 16.221 14.8076 16.2166 14.8086C16.2134 14.8094 16.2107 14.81 16.2099 14.8108C16.2092 14.8115 16.2141 14.8128 16.2196 14.8142C16.2236 14.8153 16.2279 14.8164 16.2307 14.8175C16.2373 14.82 16.2391 14.8223 16.2367 14.8235C16.2356 14.8241 16.2336 14.8244 16.2316 14.8246C16.2293 14.825 16.2269 14.8253 16.226 14.8261C16.2219 14.8295 16.2271 14.8341 16.2326 14.8387C16.2386 14.8439 16.2448 14.8492 16.2392 14.8536C16.2374 14.855 16.2336 14.8563 16.2298 14.8575C16.2259 14.8588 16.2222 14.8601 16.2211 14.8614C16.2166 14.8668 16.2285 14.8736 16.2395 14.8797C16.2468 14.8838 16.2537 14.8876 16.255 14.8906C16.2575 14.8962 16.2723 14.9004 16.2832 14.9035C16.2888 14.9051 16.2935 14.9064 16.2948 14.9075C16.2943 14.9083 16.2937 14.909 16.2931 14.9098C16.292 14.9105 16.2907 14.9112 16.291 14.9119C16.2911 14.912 16.2911 14.9121 16.2911 14.9121C16.2871 14.9164 16.2815 14.9205 16.276 14.9247C16.2635 14.9341 16.2513 14.9436 16.257 14.955C16.2582 14.9574 16.2642 14.9602 16.2704 14.9631C16.2779 14.9666 16.2856 14.9701 16.2849 14.9732C16.283 14.9804 16.2723 14.9872 16.2618 14.994C16.246 15.0042 16.2307 15.0143 16.2465 15.0253C16.2518 15.0289 16.2606 15.0325 16.2695 15.0361C16.2745 15.0381 16.2795 15.0401 16.2838 15.0421C16.2756 15.0414 16.2679 15.0409 16.2607 15.0405C16.2458 15.0395 16.2331 15.0387 16.2224 15.0365C16.197 15.0313 16.162 15.0249 16.1363 15.0244C16.1293 15.0243 16.1216 15.0238 16.1138 15.0234C16.0942 15.0222 16.0742 15.021 16.065 15.0249C16.0588 15.0274 16.0445 15.0342 16.0593 15.0393C16.0626 15.0404 16.069 15.0412 16.0762 15.0422C16.0891 15.0438 16.1043 15.0458 16.1078 15.0502C16.1083 15.0509 16.1088 15.0517 16.1093 15.0525C16.1112 15.0558 16.1134 15.0595 16.1237 15.0611C16.1356 15.063 16.1493 15.063 16.1653 15.0631C16.1862 15.0632 16.2109 15.0633 16.2406 15.0673C16.2465 15.0681 16.2485 15.0694 16.25 15.0703C16.251 15.071 16.2519 15.0715 16.2537 15.0716C16.2557 15.0717 16.2599 15.0716 16.2653 15.0715C16.2842 15.0711 16.3173 15.0704 16.3186 15.0769C16.3189 15.0787 16.3173 15.0806 16.3158 15.0824C16.3137 15.085 16.3119 15.0872 16.3173 15.0876C16.3193 15.0877 16.3216 15.0879 16.3239 15.088C16.3232 15.0901 16.3225 15.0922 16.3218 15.0943C16.3153 15.0968 16.3158 15.1007 16.3164 15.1054C16.3166 15.1065 16.3167 15.1078 16.3168 15.109C16.3154 15.1131 16.3141 15.1173 16.3127 15.1216C16.3099 15.1249 16.3054 15.1285 16.2983 15.1323C16.2841 15.1399 16.2608 15.1465 16.2379 15.1532C16.2283 15.156 16.2188 15.1588 16.2101 15.1616C16.209 15.1605 16.2077 15.1595 16.206 15.1588C16.194 15.1536 16.1705 15.1515 16.1489 15.1496C16.1345 15.1483 16.121 15.1471 16.1122 15.145C16.0962 15.1412 16.0775 15.1415 16.0636 15.1418C16.0564 15.1419 16.0505 15.142 16.047 15.1415C16.0442 15.1411 16.0429 15.1401 16.0416 15.1391C16.0404 15.1383 16.0391 15.1374 16.0369 15.1368C16.0095 15.1297 15.9935 15.1317 15.9703 15.1347C15.9576 15.1364 15.9426 15.1384 15.9222 15.1393C15.9007 15.14 15.8944 15.1398 15.8858 15.1359C15.8751 15.1389 15.8645 15.1418 15.8538 15.1448C15.8545 15.146 15.8612 15.1469 15.8722 15.1481C15.892 15.1503 15.8992 15.1575 15.9049 15.163C15.9075 15.1656 15.9098 15.1678 15.9128 15.1691C15.929 15.1757 15.9514 15.1735 15.9711 15.1717C15.9819 15.1706 15.992 15.1697 15.9997 15.1703C16.003 15.1706 16.0063 15.1702 16.0096 15.1697C16.0122 15.1694 16.0149 15.1691 16.0176 15.169C16.0372 15.1688 16.0518 15.1725 16.0654 15.1759C16.0732 15.1779 16.0806 15.1797 16.0885 15.1807C16.0909 15.181 16.0933 15.1812 16.0957 15.1814C16.0991 15.1817 16.1024 15.182 16.1052 15.1825C16.1117 15.1837 16.116 15.1861 16.1208 15.1887C16.1232 15.1901 16.1258 15.1915 16.1288 15.1928C16.1327 15.1945 16.1404 15.195 16.1486 15.1956C16.1543 15.196 16.1602 15.1964 16.1651 15.1972C16.1739 15.1987 16.1772 15.2019 16.1802 15.2049C16.1815 15.2062 16.1828 15.2075 16.1844 15.2085C16.1851 15.209 16.1864 15.2091 16.1883 15.2092C16.1945 15.2141 16.2009 15.2189 16.2072 15.2235C16.2386 15.2466 16.266 15.2655 16.2479 15.2961C16.2445 15.3018 16.2455 15.3081 16.2488 15.3143C16.2421 15.3349 16.2353 15.3554 16.2285 15.3757C16.2111 15.3808 16.1966 15.3866 16.1853 15.3931C16.1642 15.4055 16.1604 15.4177 16.156 15.4316C16.1527 15.4419 16.149 15.4533 16.1378 15.4671C16.119 15.4896 16.1038 15.5152 16.0972 15.5414C16.0906 15.5671 16.0872 15.5976 16.0872 15.6188C16.0871 15.6302 16.0727 15.6437 16.0593 15.6561C16.0405 15.6741 16.0239 15.6914 16.0516 15.6966C16.0605 15.6984 16.0757 15.6993 16.0904 15.7001C16.1009 15.7007 16.1111 15.7013 16.1188 15.7021C16.1171 15.707 16.1153 15.7119 16.1135 15.7168C16.0966 15.7264 16.0793 15.7433 16.1007 15.7537C16.0989 15.7591 16.0971 15.7643 16.0951 15.7693C16.0913 15.7806 16.087 15.7897 16.0831 15.8018C16.0818 15.8056 16.0805 15.8094 16.0791 15.8132C16.0791 15.8133 16.0791 15.8133 16.0791 15.8133C16.0764 15.821 16.0736 15.8285 16.0708 15.8356C16.0696 15.8387 16.0684 15.8417 16.0672 15.8447C16.064 15.8519 16.061 15.8607 16.0579 15.8692C16.0562 15.8737 16.0545 15.8781 16.0528 15.8824C16.05 15.8894 16.0471 15.8961 16.0441 15.9025C16.0393 15.9145 16.0343 15.9275 16.0288 15.938C16.0279 15.9398 16.0249 15.9415 16.0204 15.9427C16.0158 15.9439 16.0101 15.9445 16.0043 15.9445C15.9984 15.9445 15.9927 15.9439 15.9882 15.9428C15.9837 15.9418 15.9808 15.9404 15.9798 15.939C15.974 15.93 15.9679 15.919 15.9616 15.9088C15.9577 15.9035 15.9538 15.8978 15.9499 15.8919C15.9475 15.8883 15.9451 15.8846 15.9426 15.8808C15.938 15.8736 15.9333 15.866 15.9288 15.86C15.9271 15.8574 15.9253 15.8549 15.9234 15.8522C15.9192 15.8461 15.915 15.8397 15.9107 15.8331C15.9106 15.833 15.9106 15.833 15.9106 15.8329C15.9085 15.8297 15.9064 15.8264 15.9043 15.8231C15.8978 15.8125 15.8917 15.8047 15.8854 15.7948C15.882 15.7898 15.8787 15.7846 15.8753 15.7792C15.8735 15.7762 15.8716 15.7732 15.8697 15.7703C15.8687 15.7686 15.8677 15.767 15.8667 15.7653C15.8435 15.7299 15.8206 15.6906 15.7992 15.6545C15.7775 15.6158 15.757 15.5791 15.7374 15.5392C15.7178 15.5002 15.6993 15.4611 15.6819 15.4206C15.5721 15.1657 15.497 14.8842 15.5045 14.5774C15.5055 14.534 15.5087 14.4889 15.5136 14.4444C15.5186 14.3997 15.5253 14.3556 15.5345 14.3102C15.5373 14.2964 15.5403 14.2824 15.5437 14.268ZM15.5697 10.1629C15.605 10.0459 15.7397 9.98328 15.8033 9.8853C15.8814 9.76378 15.9175 9.58595 16.0483 9.4933C16.1737 9.40505 16.3165 9.34069 16.4537 9.30431C16.5937 9.26633 16.7299 9.25345 16.8659 9.25529C16.9966 9.25875 17.1246 9.27729 17.2491 9.30579C17.3307 9.32553 17.4122 9.34956 17.4912 9.37679C17.5246 9.38879 17.558 9.40131 17.5918 9.41434C17.617 9.42409 17.6424 9.43408 17.6679 9.44433C17.6714 9.44578 17.6748 9.45168 17.6773 9.46107C17.6798 9.47046 17.6812 9.4825 17.6812 9.49494C17.6812 9.50738 17.6798 9.51945 17.6774 9.52882C17.6749 9.53816 17.6716 9.544 17.6682 9.54541C17.6432 9.55551 17.6188 9.56585 17.595 9.57644C17.5686 9.58818 17.5429 9.60023 17.5179 9.61246C17.5114 9.56166 17.5039 9.52325 17.4924 9.50674C17.4864 9.49833 17.4787 9.49513 17.4727 9.50499C17.4676 9.51383 17.4644 9.52926 17.4614 9.54396C17.4583 9.55934 17.4554 9.57394 17.4508 9.57935C17.443 9.58852 17.4366 9.61071 17.4303 9.63403C17.4279 9.64252 17.4256 9.65118 17.4232 9.6594C17.3992 9.67172 17.376 9.68422 17.3535 9.69688C17.3438 9.69245 17.335 9.68901 17.3282 9.69191C17.3221 9.69451 17.3179 9.70588 17.3135 9.71993C17.3099 9.72195 17.3063 9.72398 17.3027 9.72601C17.2796 9.7391 17.2572 9.75229 17.2358 9.76563C17.2157 9.75504 17.1947 9.74517 17.1698 9.74394C17.1594 9.74335 17.1468 9.7383 17.1351 9.73348C17.1177 9.72636 17.1013 9.71989 17.0906 9.72984C17.0835 9.73648 17.0733 9.73144 17.0631 9.7265C17.0495 9.71986 17.0357 9.7134 17.0305 9.73504C17.0273 9.74864 17.0254 9.76468 17.0239 9.77953C17.0216 9.80309 17.0188 9.82401 17.0126 9.82717C17.0007 9.83318 16.9946 9.85187 16.9897 9.86829C16.9837 9.88806 16.9794 9.90455 16.9668 9.89239C16.9649 9.89055 16.9625 9.88803 16.9599 9.88517C16.9461 9.87006 16.923 9.84625 16.9104 9.86832C16.9057 9.87628 16.9045 9.89295 16.9038 9.90919C16.9028 9.93286 16.9025 9.95564 16.8903 9.95041C16.8885 9.94963 16.885 9.94472 16.8817 9.94024C16.8776 9.93455 16.8739 9.9296 16.8751 9.93473C16.8785 9.94979 16.8812 9.96688 16.8845 9.9854C16.8869 9.999 16.8895 10.0134 16.8928 10.0283C16.876 10.0447 16.8598 10.0612 16.844 10.0779C16.8368 10.0854 16.8299 10.0929 16.8232 10.1003C16.8081 10.0825 16.7936 10.0668 16.7813 10.0559C16.765 10.0416 16.754 10.0406 16.7388 10.0403C16.7278 10.04 16.715 10.0396 16.6967 10.0345C16.6625 10.0251 16.6466 10.0437 16.6424 10.0645C16.6416 10.0688 16.6409 10.0733 16.6403 10.0782C16.638 10.0966 16.6354 10.1194 16.6261 10.1516C16.6171 10.1824 16.6046 10.201 16.5956 10.2151C16.591 10.2223 16.5874 10.2281 16.5856 10.234C16.5828 10.2439 16.5784 10.255 16.5744 10.2661C16.5681 10.2834 16.5629 10.3006 16.5638 10.3136C16.5642 10.3182 16.5651 10.3234 16.5661 10.3289C16.5688 10.3441 16.5727 10.362 16.57 10.3805C16.5672 10.3999 16.5569 10.4066 16.5404 10.411C16.5337 10.4127 16.5147 10.407 16.4948 10.4015C16.4666 10.3936 16.4367 10.3863 16.44 10.3994C16.4408 10.4025 16.4438 10.4068 16.4469 10.4113C16.4528 10.4196 16.4593 10.4284 16.4532 10.4313C16.4511 10.4323 16.4456 10.4314 16.4402 10.4307C16.4343 10.4298 16.4285 10.429 16.4274 10.4307C16.4233 10.4369 16.4215 10.4441 16.42 10.4504C16.418 10.4586 16.4165 10.4655 16.4106 10.4678C16.4 10.4719 16.4036 10.4827 16.4075 10.4935C16.4104 10.5017 16.4136 10.5099 16.4103 10.5156C16.4011 10.5318 16.4061 10.561 16.4213 10.5926C16.427 10.6046 16.4131 10.6092 16.3953 10.6159C16.3842 10.62 16.3715 10.625 16.3613 10.6328C16.3555 10.6373 16.3648 10.6446 16.3735 10.6511C16.3815 10.6572 16.389 10.6627 16.3835 10.6654C16.3786 10.6678 16.3605 10.666 16.3432 10.6644C16.324 10.6627 16.3059 10.6611 16.3086 10.6656C16.31 10.668 16.3183 10.6722 16.3283 10.6772C16.3322 10.6792 16.3364 10.6812 16.3405 10.6834C16.3369 10.6826 16.3337 10.6819 16.3313 10.6814C16.3141 10.6779 16.3042 10.6799 16.2946 10.6819C16.2908 10.6828 16.2869 10.6836 16.2827 10.6841C16.2671 10.6858 16.263 10.6943 16.2625 10.7012C16.2622 10.7041 16.2564 10.7057 16.2496 10.7077C16.2436 10.7095 16.2368 10.7115 16.2325 10.7148C16.23 10.7167 16.2247 10.7176 16.2203 10.7184C16.217 10.7189 16.2143 10.7194 16.2135 10.7201C16.2128 10.7207 16.2177 10.7221 16.2232 10.7237C16.2271 10.7248 16.2314 10.726 16.2342 10.7271C16.2407 10.7296 16.2425 10.7318 16.2401 10.7328C16.239 10.7333 16.237 10.7335 16.235 10.7336C16.2326 10.7339 16.2303 10.7341 16.2294 10.7347C16.2252 10.7377 16.2304 10.742 16.2357 10.7465C16.2416 10.7514 16.2478 10.7564 16.2421 10.7603C16.2403 10.7615 16.2365 10.7625 16.2327 10.7636C16.2288 10.7646 16.225 10.7657 16.2239 10.7669C16.2193 10.7716 16.2311 10.7783 16.242 10.7843C16.2493 10.7883 16.2561 10.792 16.2574 10.7948C16.2599 10.8 16.2745 10.8043 16.2854 10.8075C16.291 10.8091 16.2956 10.8104 16.2969 10.8114C16.2964 10.8121 16.2959 10.8128 16.2952 10.8135C16.2941 10.8141 16.2928 10.8147 16.2931 10.8154C16.2931 10.8154 16.2932 10.8155 16.2932 10.8155C16.2891 10.8194 16.2835 10.823 16.2779 10.8266C16.2654 10.8347 16.2531 10.8429 16.2586 10.8536C16.2598 10.8559 16.2658 10.8586 16.2719 10.8614C16.2794 10.8647 16.2871 10.8682 16.2863 10.8709C16.2844 10.8775 16.2737 10.8835 16.2631 10.8896C16.2472 10.8986 16.2317 10.9079 16.2475 10.918C16.2527 10.9213 16.2615 10.9248 16.2704 10.9282C16.2753 10.9301 16.2803 10.932 16.2847 10.9339C16.2764 10.9331 16.2687 10.9325 16.2615 10.932C16.2467 10.9309 16.234 10.9299 16.2232 10.9278C16.1979 10.9226 16.163 10.9162 16.1373 10.9153C16.1303 10.9151 16.1226 10.9146 16.1148 10.914C16.0953 10.9126 16.0753 10.9112 16.066 10.9146C16.0598 10.9168 16.0455 10.9229 16.0602 10.928C16.0635 10.929 16.0699 10.9299 16.0771 10.9309C16.0899 10.9326 16.1052 10.9346 16.1085 10.9388C16.1091 10.9395 16.1096 10.9403 16.1101 10.941C16.112 10.9441 16.1141 10.9476 16.1244 10.9493C16.1363 10.9512 16.15 10.9514 16.166 10.9516C16.1868 10.952 16.2116 10.9524 16.2412 10.9565C16.2471 10.9573 16.2491 10.9585 16.2506 10.9594C16.2516 10.9601 16.2525 10.9605 16.2543 10.9606C16.2563 10.9608 16.2605 10.9607 16.2659 10.9607C16.2848 10.9605 16.3179 10.9603 16.3191 10.9663C16.3194 10.9679 16.3178 10.9697 16.3163 10.9713C16.3141 10.9737 16.3124 10.9757 16.3177 10.9761C16.3198 10.9763 16.322 10.9764 16.3243 10.9766C16.3236 10.9785 16.3229 10.9804 16.3222 10.9823C16.3157 10.9846 16.3162 10.9881 16.3168 10.9925C16.3169 10.9936 16.3171 10.9947 16.3171 10.9958C16.3157 10.9996 16.3143 11.0034 16.3129 11.0072C16.3101 11.0102 16.3056 11.0134 16.2985 11.0167C16.2843 11.0236 16.2609 11.0296 16.238 11.0357C16.2284 11.0382 16.2188 11.0408 16.2101 11.0434C16.209 11.0424 16.2077 11.0414 16.206 11.0407C16.1941 11.0359 16.1706 11.0338 16.149 11.0318C16.1346 11.0305 16.1211 11.0293 16.1123 11.0273C16.0963 11.0236 16.0776 11.0238 16.0637 11.024C16.0566 11.0241 16.0507 11.0241 16.0472 11.0236C16.0444 11.0232 16.0431 11.0223 16.0417 11.0213C16.0405 11.0205 16.0393 11.0197 16.037 11.0191C16.0097 11.0123 15.9937 11.014 15.9705 11.0167C15.9577 11.0182 15.9427 11.02 15.9224 11.0207C15.9008 11.0213 15.8945 11.021 15.8859 11.0173C15.8753 11.02 15.8646 11.0227 15.854 11.0255C15.8546 11.0267 15.8613 11.0276 15.8723 11.0288C15.8921 11.031 15.8992 11.0379 15.9049 11.0432C15.9075 11.0456 15.9098 11.0478 15.9128 11.049C15.9289 11.0553 15.9513 11.0534 15.9711 11.0517C15.9819 11.0508 15.992 11.05 15.9997 11.0506C16.003 11.0508 16.0063 11.0504 16.0096 11.0501C16.0122 11.0498 16.0148 11.0494 16.0175 11.0494C16.0372 11.0493 16.0518 11.0529 16.0653 11.0561C16.0731 11.058 16.0805 11.0598 16.0884 11.0607C16.0908 11.061 16.0932 11.0612 16.0956 11.0614C16.099 11.0617 16.1023 11.062 16.1052 11.0625C16.1116 11.0636 16.1159 11.0659 16.1207 11.0684C16.1231 11.0697 16.1257 11.071 16.1286 11.0722C16.1325 11.0739 16.1403 11.0744 16.1484 11.0749C16.1542 11.0753 16.1601 11.0757 16.1649 11.0764C16.1738 11.0779 16.177 11.0809 16.18 11.0837C16.1813 11.0849 16.1826 11.0861 16.1842 11.0871C16.1849 11.0875 16.1862 11.0877 16.1881 11.0877C16.1943 11.0922 16.2007 11.0966 16.2069 11.1007C16.2383 11.1222 16.2656 11.1398 16.2474 11.1684C16.244 11.1738 16.245 11.1793 16.2483 11.185C16.2415 11.2042 16.2348 11.2234 16.2279 11.2426C16.2105 11.2475 16.196 11.2531 16.1848 11.2593C16.1636 11.2707 16.1598 11.2823 16.1554 11.2954C16.1521 11.3052 16.1484 11.3159 16.1373 11.3291C16.1185 11.3508 16.1032 11.3745 16.0968 11.3995C16.0903 11.424 16.0868 11.4526 16.0869 11.4727C16.0869 11.4835 16.0725 11.4965 16.0592 11.5084C16.0404 11.5257 16.0238 11.5424 16.0516 11.5469C16.0605 11.5485 16.0756 11.549 16.0903 11.5496C16.1008 11.55 16.111 11.5504 16.1187 11.5511C16.117 11.5558 16.1152 11.5605 16.1135 11.5651C16.0966 11.5745 16.0793 11.5909 16.1007 11.6004C16.0989 11.6055 16.0971 11.6105 16.0952 11.6153C16.0913 11.626 16.0871 11.6345 16.0832 11.6465C16.0819 11.6501 16.0806 11.6537 16.0793 11.6574C16.0792 11.6574 16.0792 11.6574 16.0792 11.6575C16.0765 11.6647 16.0738 11.6718 16.0709 11.6787C16.0697 11.6816 16.0685 11.6845 16.0673 11.6874C16.0641 11.6942 16.0612 11.7031 16.058 11.711C16.0563 11.7153 16.0547 11.7194 16.0529 11.7235C16.0501 11.7302 16.0472 11.7366 16.0441 11.7428C16.0394 11.7548 16.0344 11.7666 16.0288 11.7768C16.0279 11.7785 16.0249 11.7801 16.0204 11.7813C16.0158 11.7824 16.0101 11.783 16.0043 11.783C15.9984 11.783 15.9927 11.7824 15.9882 11.7814C15.9837 11.7805 15.9808 11.7791 15.9798 11.7777C15.974 11.7691 15.9679 11.7592 15.9616 11.7492C15.9578 11.7442 15.9539 11.7389 15.95 11.7334C15.9476 11.73 15.9453 11.7266 15.9428 11.723C15.9383 11.7165 15.9335 11.7089 15.9291 11.7034C15.9273 11.701 15.9255 11.6986 15.9237 11.6962C15.9194 11.6905 15.9152 11.6845 15.9109 11.6783C15.9109 11.6783 15.9109 11.6782 15.9109 11.6782C15.9088 11.6752 15.9067 11.6721 15.9046 11.669C15.898 11.6588 15.892 11.6517 15.8857 11.6424C15.8823 11.6378 15.879 11.6329 15.8756 11.6279C15.8737 11.6251 15.8718 11.6223 15.8699 11.6195C15.8689 11.618 15.8679 11.6165 15.8669 11.6149C15.8437 11.5815 15.8208 11.5449 15.7992 11.5107C15.7774 11.4742 15.7569 11.4398 15.7371 11.4018C15.7175 11.3655 15.6989 11.3271 15.6815 11.2892C15.5715 11.0466 15.4971 10.771 15.5156 10.468C15.5182 10.425 15.5233 10.3802 15.5302 10.3366C15.5372 10.2925 15.5463 10.2487 15.558 10.2045C15.5615 10.191 15.5654 10.1771 15.5697 10.1629ZM11.7674 18.5424C11.8049 18.4249 11.94 18.3604 12.0022 18.2589C12.0788 18.133 12.1081 17.9502 12.2348 17.8464C12.3594 17.7446 12.5 17.6654 12.6461 17.6111C12.7915 17.557 12.9433 17.5271 13.0862 17.5189C13.2326 17.5094 13.3729 17.5202 13.5076 17.5433C13.6021 17.5587 13.6856 17.581 13.7754 17.6064C13.8119 17.6178 13.8485 17.6299 13.8855 17.6427C13.913 17.6522 13.9406 17.6621 13.9684 17.6723C13.9723 17.6737 13.976 17.6796 13.9787 17.689C13.9815 17.6984 13.983 17.7104 13.983 17.7229C13.983 17.7353 13.9814 17.7474 13.9788 17.7568C13.9761 17.7661 13.9725 17.7719 13.9688 17.7734C13.9417 17.7835 13.9153 17.7939 13.8895 17.8047C13.8609 17.8167 13.8332 17.8291 13.8062 17.8417C13.7988 17.791 13.7905 17.7527 13.7775 17.7364C13.7706 17.7281 13.7611 17.7252 13.7551 17.7351C13.7497 17.7441 13.7464 17.7596 13.7433 17.7744C13.7401 17.7898 13.7371 17.8045 13.7323 17.81C13.724 17.8194 13.7174 17.8417 13.7109 17.8652C13.7085 17.8737 13.7061 17.8825 13.7037 17.8908C13.6781 17.9037 13.6534 17.9169 13.6296 17.9304C13.6193 17.9262 13.6093 17.9232 13.6015 17.9264C13.5946 17.9293 13.5896 17.941 13.5852 17.9552C13.5814 17.9574 13.5777 17.9595 13.5739 17.9617C13.5497 17.9757 13.5264 17.9899 13.504 18.0043C13.4823 17.9947 13.4602 17.9858 13.4315 17.9865C13.4193 17.9868 13.4063 17.9823 13.3937 17.9782C13.3752 17.9721 13.3576 17.9667 13.3467 17.9774C13.3394 17.9845 13.3284 17.9801 13.3174 17.9759C13.303 17.9701 13.2871 17.9649 13.2818 17.9872C13.2785 18.0012 13.2768 18.0176 13.2755 18.0327C13.2733 18.0568 13.2719 18.0778 13.2654 18.0815C13.2531 18.0884 13.2476 18.1077 13.2431 18.1246C13.2378 18.1449 13.234 18.1618 13.2201 18.1507C13.218 18.149 13.2153 18.1467 13.2123 18.1441C13.1966 18.1303 13.1704 18.1087 13.1571 18.1326C13.1523 18.1411 13.1521 18.158 13.1522 18.1744C13.1522 18.1983 13.153 18.2213 13.14 18.2172C13.138 18.2166 13.1341 18.212 13.1304 18.2078C13.1257 18.2025 13.1217 18.1979 13.1231 18.2029C13.1274 18.2178 13.1312 18.2347 13.1354 18.2532C13.1384 18.2667 13.1417 18.2811 13.1458 18.2959C13.1275 18.3149 13.1105 18.3338 13.0945 18.3525C13.0872 18.361 13.0801 18.3695 13.0727 18.3783C13.0556 18.362 13.0394 18.348 13.0255 18.3385C13.0073 18.326 12.9948 18.327 12.9789 18.3284C12.9671 18.3295 12.9534 18.3309 12.9336 18.328C12.8963 18.3231 12.8781 18.3459 12.8745 18.3679C12.8737 18.3725 12.8731 18.3774 12.8725 18.3826C12.8704 18.4021 12.8675 18.4267 12.8564 18.4635C12.8461 18.4983 12.832 18.5206 12.8212 18.5382C12.8158 18.5471 12.8114 18.5546 12.8094 18.5613C12.8058 18.5728 12.8006 18.5859 12.7956 18.5992C12.7875 18.6201 12.7803 18.6414 12.7805 18.6562C12.7806 18.6615 12.7811 18.6673 12.7818 18.6736C12.7836 18.6909 12.7861 18.7116 12.7812 18.7345C12.7762 18.7585 12.7644 18.768 12.7465 18.7755C12.7392 18.7785 12.7194 18.7742 12.6989 18.7699C12.6698 18.7639 12.6391 18.7583 12.6415 18.7734C12.642 18.7769 12.6448 18.7817 12.6478 18.7867C12.6532 18.7959 12.6592 18.8057 12.6526 18.8097C12.6503 18.811 12.6446 18.8105 12.6391 18.8101C12.6331 18.8096 12.6271 18.8091 12.6258 18.8112C12.621 18.8188 12.6185 18.8274 12.6164 18.8351C12.6136 18.8449 12.6114 18.8532 12.6051 18.8563C12.5938 18.8617 12.5966 18.8742 12.5996 18.8867C12.6019 18.8962 12.6044 18.9058 12.6006 18.9127C12.5896 18.9324 12.592 18.9666 12.6044 19.0038C12.6091 19.0178 12.5946 19.0237 12.5758 19.0318C12.5642 19.0369 12.5509 19.0427 12.5398 19.0519C12.5336 19.0571 12.5423 19.0655 12.5505 19.0732C12.558 19.0804 12.565 19.0869 12.5592 19.09C12.5541 19.0928 12.5359 19.0905 12.5187 19.0885C12.4995 19.0862 12.4814 19.0841 12.4837 19.0893C12.4849 19.0921 12.4929 19.0971 12.5025 19.1031C12.5063 19.1055 12.5103 19.108 12.5143 19.1105C12.5107 19.1095 12.5075 19.1087 12.5051 19.1081C12.4881 19.1037 12.478 19.1058 12.4681 19.108C12.4642 19.1088 12.4603 19.1097 12.456 19.1101C12.4401 19.1118 12.4353 19.1213 12.4341 19.1291C12.4337 19.1325 12.4277 19.1341 12.4207 19.1362C12.4145 19.138 12.4074 19.14 12.4028 19.1437C12.4002 19.1457 12.3948 19.1466 12.3903 19.1473C12.387 19.1478 12.3842 19.1482 12.3833 19.149C12.3826 19.1496 12.3874 19.1514 12.3927 19.1533C12.3966 19.1547 12.4008 19.1563 12.4035 19.1576C12.4098 19.1607 12.4114 19.1633 12.4089 19.1643C12.4078 19.1648 12.4057 19.1649 12.4037 19.165C12.4014 19.1652 12.399 19.1653 12.398 19.166C12.3936 19.1692 12.3983 19.1744 12.4033 19.1797C12.4088 19.1855 12.4145 19.1915 12.4085 19.1957C12.4066 19.197 12.4026 19.198 12.3988 19.199C12.3948 19.2 12.3909 19.201 12.3897 19.2023C12.3847 19.2075 12.3959 19.2155 12.4063 19.2228C12.4132 19.2276 12.4197 19.2322 12.4207 19.2354C12.4227 19.2414 12.437 19.247 12.4476 19.2512C12.4531 19.2533 12.4576 19.255 12.4588 19.2562C12.4582 19.257 12.4576 19.2578 12.4569 19.2585C12.4557 19.2591 12.4544 19.2597 12.4546 19.2606C12.4546 19.2606 12.4547 19.2607 12.4547 19.2607C12.4502 19.2649 12.4443 19.2687 12.4384 19.2725C12.4251 19.2809 12.412 19.2899 12.4166 19.3021C12.4176 19.3048 12.4233 19.3082 12.4292 19.3117C12.4364 19.316 12.4437 19.3203 12.4427 19.3234C12.4402 19.3307 12.4289 19.3369 12.4178 19.343C12.4011 19.3522 12.3848 19.3615 12.3996 19.3739C12.4045 19.378 12.413 19.3825 12.4215 19.387C12.4263 19.3895 12.4311 19.392 12.4353 19.3945C12.4271 19.3931 12.4195 19.3919 12.4123 19.3908C12.3976 19.3885 12.385 19.3866 12.3745 19.3833C12.3497 19.3757 12.3154 19.3662 12.2899 19.3634C12.283 19.3627 12.2753 19.3616 12.2676 19.3604C12.2482 19.3576 12.2284 19.3546 12.2188 19.3577C12.2124 19.3598 12.1976 19.3656 12.2119 19.3722C12.215 19.3736 12.2213 19.375 12.2284 19.3766C12.2411 19.3794 12.2561 19.3828 12.2591 19.3876C12.2596 19.3884 12.26 19.3893 12.2604 19.3902C12.262 19.3937 12.2638 19.3977 12.274 19.4003C12.2857 19.4033 12.2993 19.4045 12.3152 19.406C12.336 19.4079 12.3606 19.4102 12.3899 19.4169C12.3956 19.4182 12.3975 19.4197 12.3989 19.4208C12.3999 19.4216 12.4007 19.4222 12.4025 19.4224C12.4045 19.4227 12.4087 19.423 12.4141 19.4233C12.433 19.4245 12.466 19.4267 12.4666 19.4335C12.4668 19.4354 12.465 19.4373 12.4634 19.439C12.461 19.4415 12.459 19.4436 12.4644 19.4445C12.4664 19.4448 12.4686 19.4451 12.4709 19.4455C12.47 19.4476 12.4691 19.4497 12.4683 19.4518C12.4615 19.4539 12.4617 19.4579 12.4619 19.4628C12.462 19.464 12.462 19.4653 12.4619 19.4666C12.4602 19.4708 12.4584 19.4749 12.4567 19.4791C12.4536 19.4822 12.4489 19.4854 12.4415 19.4887C12.4266 19.4953 12.4027 19.5002 12.3794 19.5051C12.3696 19.5071 12.3598 19.5092 12.3509 19.5114C12.3499 19.5102 12.3487 19.509 12.347 19.5081C12.3356 19.5017 12.3124 19.4975 12.291 19.4936C12.2768 19.491 12.2634 19.4886 12.2549 19.4857C12.2393 19.4803 12.2206 19.4791 12.2068 19.4781C12.1996 19.4777 12.1937 19.4772 12.1903 19.4764C12.1875 19.4757 12.1863 19.4746 12.185 19.4735C12.1839 19.4725 12.1828 19.4714 12.1806 19.4706C12.1539 19.4609 12.1379 19.4616 12.1145 19.4627C12.1016 19.4633 12.0865 19.4641 12.0661 19.4632C12.0446 19.4621 12.0383 19.4613 12.0301 19.4566C12.0193 19.4587 12.0084 19.4608 11.9975 19.463C11.9981 19.4643 12.0046 19.4658 12.0155 19.468C12.035 19.472 12.0416 19.4801 12.0467 19.4863C12.0491 19.4892 12.0512 19.4917 12.0541 19.4932C12.0696 19.5015 12.0921 19.5012 12.1119 19.501C12.1228 19.5009 12.1329 19.5008 12.1405 19.5021C12.1438 19.5027 12.1471 19.5025 12.1505 19.5023C12.1531 19.5022 12.1557 19.5021 12.1584 19.5023C12.178 19.5038 12.1922 19.5089 12.2055 19.5136C12.213 19.5163 12.2203 19.5188 12.228 19.5205C12.2304 19.521 12.2328 19.5215 12.2351 19.5219C12.2385 19.5225 12.2418 19.5231 12.2446 19.5239C12.2509 19.5256 12.255 19.5285 12.2595 19.5316C12.2618 19.5333 12.2642 19.5349 12.2671 19.5366C12.2708 19.5387 12.2785 19.5399 12.2866 19.5412C12.2922 19.542 12.2981 19.543 12.3029 19.5443C12.3115 19.5466 12.3145 19.5502 12.3172 19.5535C12.3184 19.555 12.3196 19.5564 12.3211 19.5576C12.3218 19.5581 12.3231 19.5584 12.3249 19.5586C12.3307 19.5642 12.3367 19.5695 12.3425 19.5746C12.3718 19.6013 12.3974 19.6232 12.3768 19.6531C12.3729 19.6588 12.3734 19.665 12.3761 19.6714C12.3677 19.6921 12.3592 19.7127 12.3507 19.7331C12.3329 19.7369 12.318 19.7416 12.3062 19.7474C12.2842 19.758 12.2794 19.77 12.2738 19.784C12.2697 19.7944 12.2651 19.8059 12.2529 19.8192C12.2323 19.8412 12.215 19.8651 12.2065 19.8919C12.198 19.9183 12.1922 19.9482 12.1907 19.9703C12.1898 19.9822 12.1745 19.9949 12.1602 20.0067C12.1402 20.0225 12.1224 20.0401 12.1498 20.0474C12.1585 20.0499 12.1736 20.0519 12.1882 20.0538C12.1986 20.0551 12.2088 20.0565 12.2164 20.0579C12.2143 20.0628 12.2123 20.0677 12.2102 20.0726C12.1927 20.0816 12.1742 20.0965 12.195 20.109C12.1929 20.1144 12.1907 20.1196 12.1885 20.1246C12.1839 20.1357 12.1792 20.1456 12.1746 20.1566C12.173 20.1604 12.1715 20.1642 12.17 20.168C12.1699 20.1681 12.1699 20.1681 12.1699 20.1681C12.1668 20.1758 12.1637 20.1833 12.1605 20.1904C12.1591 20.1935 12.1578 20.1965 12.1564 20.1995C12.1529 20.2069 12.1495 20.2148 12.146 20.2235C12.1441 20.228 12.1423 20.2324 12.1404 20.2367C12.1373 20.2436 12.1341 20.2503 12.1309 20.2566C12.1258 20.268 12.1206 20.2813 12.1149 20.2915C12.114 20.2932 12.111 20.2948 12.1065 20.296C12.102 20.2972 12.0963 20.2978 12.0904 20.2978C12.0845 20.2978 12.0788 20.2972 12.0743 20.2961C12.0698 20.2951 12.0669 20.2936 12.0659 20.2921C12.0602 20.2829 12.0543 20.2707 12.0483 20.2604C12.0446 20.2546 12.0409 20.2485 12.0372 20.2422C12.0349 20.2383 12.0326 20.2342 12.0303 20.2301C12.026 20.222 12.0217 20.2148 12.0175 20.2079C12.0158 20.2051 12.0141 20.2023 12.0125 20.1994C12.0085 20.1928 12.0046 20.1857 12.0007 20.1785C12.0006 20.1784 12.0006 20.1784 12.0006 20.1783C11.9987 20.1748 11.9967 20.1712 11.9948 20.1675C11.989 20.1572 11.9833 20.1478 11.9776 20.1371C11.9745 20.1317 11.9715 20.1259 11.9685 20.1201C11.9668 20.1168 11.9651 20.1135 11.9634 20.1103C11.9625 20.1085 11.9616 20.1067 11.9607 20.1048C11.9398 20.067 11.9197 20.0245 11.9009 19.9848C11.882 19.9422 11.8644 19.9037 11.8479 19.86C11.8315 19.8193 11.8163 19.775 11.8023 19.733C11.7139 19.4599 11.6663 19.163 11.7015 18.8522C11.7065 18.8082 11.7137 18.7624 11.7224 18.7181C11.7313 18.6733 11.7418 18.6292 11.7547 18.5842C11.7586 18.5706 11.7628 18.5567 11.7674 18.5424ZM11.7073 10.0983C11.7434 9.9811 11.8778 9.91775 11.9403 9.81786C12.0168 9.69465 12.0497 9.5132 12.1777 9.41528C12.3023 9.32008 12.4448 9.24762 12.5864 9.20258C12.7312 9.15562 12.8729 9.13583 13.0128 9.13261C13.1515 9.12996 13.2854 9.14491 13.4148 9.17094C13.5027 9.18869 13.5849 9.2119 13.6692 9.23833C13.7041 9.25004 13.7391 9.26237 13.7743 9.27526C13.8007 9.28491 13.8271 9.29485 13.8537 9.30509C13.8574 9.30653 13.8609 9.31244 13.8636 9.32182C13.8662 9.33122 13.8676 9.34325 13.8676 9.35569C13.8676 9.36814 13.8662 9.3802 13.8636 9.38957C13.861 9.39891 13.8576 9.40475 13.854 9.40616C13.8281 9.41628 13.8027 9.42668 13.7779 9.43735C13.7505 9.44919 13.7238 9.46139 13.6978 9.4738C13.691 9.42305 13.683 9.3847 13.6709 9.36829C13.665 9.3599 13.6556 9.35685 13.6498 9.36675C13.6446 9.37564 13.6413 9.3911 13.6383 9.40584C13.6351 9.42125 13.6322 9.43588 13.6274 9.44134C13.6194 9.4506 13.613 9.47286 13.6065 9.49626C13.6042 9.50478 13.6018 9.51346 13.5994 9.52172C13.5747 9.53433 13.5507 9.54717 13.5276 9.56019C13.5176 9.5559 13.5084 9.55262 13.5014 9.55563C13.4949 9.55836 13.4898 9.56992 13.4854 9.58406C13.4817 9.58615 13.478 9.58825 13.4744 9.59035C13.4507 9.60387 13.428 9.61753 13.4061 9.63136C13.3851 9.62125 13.3641 9.61171 13.3373 9.61137C13.3255 9.61128 13.3129 9.6065 13.3007 9.60201C13.2828 9.59537 13.2659 9.58938 13.2551 9.59967C13.2478 9.60654 13.2373 9.60181 13.2268 9.59719C13.2126 9.59097 13.1983 9.58497 13.1934 9.60683C13.1901 9.62064 13.1879 9.63693 13.1863 9.65196C13.1837 9.6759 13.1819 9.69676 13.1755 9.70019C13.1634 9.70664 13.1576 9.72559 13.153 9.74223C13.1473 9.76226 13.1433 9.77896 13.1301 9.76728C13.1281 9.76551 13.1256 9.76308 13.1229 9.76031C13.1084 9.74571 13.0842 9.72277 13.0704 9.74604C13.0657 9.75427 13.065 9.771 13.0647 9.78733C13.0642 9.81112 13.0645 9.83398 13.052 9.82929C13.0501 9.82859 13.0464 9.82383 13.0429 9.81948C13.0385 9.81396 13.0346 9.80916 13.036 9.81426C13.0399 9.82923 13.0431 9.84625 13.0469 9.86469C13.0497 9.87824 13.0528 9.89257 13.0565 9.90738C13.0397 9.92474 13.022 9.94295 13.0065 9.96033C12.9993 9.96834 12.9924 9.97629 12.9857 9.98417C12.9696 9.96704 12.9545 9.95202 12.9412 9.94189C12.9238 9.92858 12.9117 9.92876 12.8963 9.9292C12.885 9.92954 12.8718 9.93001 12.8528 9.92592C12.8178 9.9182 12.7998 9.93954 12.7963 9.96067C12.7955 9.96516 12.7949 9.9698 12.7943 9.9748C12.792 9.99389 12.7901 10.0169 12.7796 10.0517C12.7699 10.0844 12.7569 10.1046 12.7471 10.1204C12.7421 10.1285 12.738 10.1352 12.7362 10.1414C12.733 10.1521 12.7283 10.1641 12.7238 10.1763C12.7169 10.1951 12.7104 10.2147 12.7111 10.2284C12.7114 10.2333 12.7121 10.2388 12.713 10.2447C12.7153 10.2609 12.7186 10.28 12.7148 10.3008C12.7109 10.3226 12.6999 10.3306 12.6827 10.3366C12.6758 10.339 12.6564 10.334 12.6361 10.3291C12.6075 10.3222 12.5771 10.316 12.58 10.33C12.5807 10.3333 12.5836 10.3379 12.5867 10.3426C12.5923 10.3513 12.5986 10.3606 12.5922 10.364C12.59 10.3652 12.5845 10.3646 12.5791 10.364C12.5731 10.3633 12.5672 10.3627 12.566 10.3646C12.5615 10.3715 12.5594 10.3794 12.5576 10.3863C12.5553 10.3954 12.5535 10.403 12.5473 10.4057C12.5364 10.4105 12.5396 10.4221 12.5431 10.4338C12.5458 10.4426 12.5486 10.4515 12.5451 10.4578C12.5351 10.4756 12.5389 10.5076 12.5528 10.5419C12.558 10.5549 12.5439 10.56 12.5256 10.5675C12.5142 10.5722 12.5013 10.5776 12.4907 10.5861C12.4846 10.591 12.4937 10.5988 12.5022 10.6059C12.51 10.6125 12.5172 10.6185 12.5116 10.6214C12.5066 10.624 12.4884 10.622 12.4712 10.6202C12.452 10.6182 12.4339 10.6165 12.4363 10.6213C12.4377 10.6238 12.4459 10.6284 12.4557 10.6339C12.4595 10.6361 12.4636 10.6384 12.4677 10.6407C12.4641 10.6398 12.4609 10.6391 12.4585 10.6385C12.4414 10.6346 12.4314 10.6367 12.4217 10.6388C12.4178 10.6396 12.4139 10.6405 12.4096 10.6409C12.3939 10.6427 12.3895 10.6516 12.3887 10.659C12.3883 10.6621 12.3824 10.6638 12.3755 10.6658C12.3694 10.6676 12.3625 10.6696 12.358 10.6731C12.3555 10.6751 12.3501 10.676 12.3457 10.6767C12.3424 10.6772 12.3397 10.6777 12.3388 10.6784C12.3381 10.6791 12.3429 10.6806 12.3484 10.6824C12.3523 10.6836 12.3565 10.685 12.3592 10.6862C12.3657 10.689 12.3674 10.6914 12.365 10.6924C12.3638 10.6929 12.3618 10.693 12.3598 10.6932C12.3575 10.6934 12.3551 10.6936 12.3542 10.6942C12.3499 10.6973 12.3548 10.702 12.36 10.7069C12.3657 10.7122 12.3717 10.7178 12.3658 10.7218C12.364 10.7231 12.3601 10.7241 12.3563 10.7251C12.3524 10.7261 12.3485 10.7272 12.3474 10.7284C12.3426 10.7334 12.3541 10.7407 12.3648 10.7473C12.3719 10.7517 12.3785 10.7559 12.3798 10.7589C12.382 10.7645 12.3965 10.7694 12.4072 10.7731C12.4127 10.7749 12.4173 10.7765 12.4186 10.7776C12.4181 10.7783 12.4175 10.7791 12.4168 10.7798C12.4156 10.7804 12.4144 10.781 12.4146 10.7817C12.4146 10.7818 12.4147 10.7818 12.4147 10.7819C12.4104 10.7859 12.4047 10.7896 12.3989 10.7933C12.3861 10.8016 12.3734 10.8101 12.3785 10.8216C12.3796 10.824 12.3855 10.8271 12.3915 10.8302C12.3988 10.8341 12.4063 10.8379 12.4054 10.8409C12.4033 10.8478 12.3922 10.8539 12.3814 10.86C12.3651 10.8691 12.3493 10.8784 12.3646 10.8896C12.3697 10.8934 12.3783 10.8973 12.3871 10.9012C12.3919 10.9034 12.3968 10.9056 12.4011 10.9078C12.3929 10.9067 12.3852 10.9058 12.378 10.905C12.3633 10.9033 12.3506 10.9019 12.34 10.8992C12.3149 10.8928 12.2802 10.885 12.2546 10.8831C12.2477 10.8826 12.2399 10.8818 12.2322 10.881C12.2127 10.8789 12.1928 10.8767 12.1834 10.8799C12.1771 10.882 12.1625 10.888 12.177 10.8938C12.1802 10.8951 12.1866 10.8962 12.1937 10.8975C12.2065 10.8997 12.2216 10.9024 12.2249 10.9069C12.2254 10.9077 12.2259 10.9085 12.2263 10.9093C12.2281 10.9126 12.23 10.9164 12.2403 10.9185C12.2521 10.9209 12.2658 10.9216 12.2817 10.9225C12.3025 10.9236 12.3272 10.9249 12.3567 10.9303C12.3626 10.9314 12.3645 10.9327 12.3659 10.9337C12.367 10.9344 12.3678 10.935 12.3696 10.9352C12.3716 10.9354 12.3758 10.9355 12.3812 10.9356C12.4001 10.9361 12.4332 10.9371 12.4341 10.9435C12.4344 10.9452 12.4327 10.9471 12.4311 10.9487C12.4289 10.9512 12.427 10.9532 12.4324 10.9539C12.4344 10.9541 12.4366 10.9543 12.4389 10.9546C12.4381 10.9566 12.4373 10.9586 12.4366 10.9606C12.43 10.9628 12.4303 10.9665 12.4307 10.9712C12.4308 10.9723 12.4309 10.9735 12.4309 10.9748C12.4293 10.9787 12.4278 10.9827 12.4262 10.9867C12.4233 10.9898 12.4187 10.9928 12.4114 10.9962C12.3969 11.003 12.3732 11.0084 12.3501 11.0139C12.3404 11.0162 12.3307 11.0185 12.3219 11.0209C12.3209 11.0198 12.3196 11.0188 12.3179 11.018C12.3062 11.0123 12.2829 11.0092 12.2614 11.0063C12.2471 11.0044 12.2336 11.0025 12.2249 11.0001C12.2091 10.9956 12.1904 10.9951 12.1765 10.9947C12.1693 10.9945 12.1634 10.9943 12.16 10.9937C12.1572 10.9931 12.1559 10.9921 12.1546 10.9911C12.1535 10.9901 12.1523 10.9892 12.15 10.9885C12.123 10.9803 12.107 10.9815 12.0837 10.9834C12.0708 10.9845 12.0557 10.9857 12.0354 10.9857C12.0138 10.9854 12.0075 10.9849 11.9991 10.9807C11.9884 10.9831 11.9776 10.9855 11.9668 10.988C11.9675 10.9892 11.9741 10.9904 11.985 10.9921C12.0047 10.9953 12.0116 11.0027 12.017 11.0084C12.0195 11.0111 12.0217 11.0134 12.0246 11.0148C12.0405 11.0221 12.063 11.0209 12.0827 11.02C12.0936 11.0195 12.1037 11.019 12.1114 11.02C12.1147 11.0204 12.118 11.0201 12.1213 11.0198C12.1239 11.0196 12.1266 11.0194 12.1293 11.0195C12.1489 11.0202 12.1633 11.0245 12.1767 11.0285C12.1844 11.0307 12.1918 11.0329 12.1996 11.0342C12.202 11.0346 12.2044 11.0349 12.2067 11.0352C12.2102 11.0357 12.2135 11.0361 12.2163 11.0368C12.2226 11.0382 12.2269 11.0408 12.2315 11.0436C12.2339 11.045 12.2364 11.0465 12.2393 11.0479C12.2431 11.0498 12.2509 11.0507 12.259 11.0516C12.2647 11.0522 12.2706 11.0528 12.2754 11.0539C12.2842 11.0557 12.2872 11.0591 12.2901 11.0621C12.2914 11.0635 12.2926 11.0648 12.2942 11.0659C12.2949 11.0663 12.2962 11.0666 12.298 11.0666C12.3041 11.0717 12.3103 11.0765 12.3163 11.0811C12.3467 11.1052 12.3732 11.1249 12.354 11.1541C12.3503 11.1596 12.3511 11.1655 12.3541 11.1715C12.3465 11.1915 12.339 11.2113 12.3313 11.2311C12.3137 11.2354 12.299 11.2406 12.2875 11.2466C12.2659 11.2576 12.2617 11.2694 12.2567 11.2829C12.253 11.293 12.2489 11.3041 12.2372 11.3173C12.2176 11.3391 12.2014 11.363 12.1939 11.3888C12.1865 11.4142 12.1819 11.4434 12.1812 11.4645C12.1808 11.4758 12.166 11.4887 12.1522 11.5005C12.1328 11.5172 12.1157 11.5342 12.1433 11.5401C12.1521 11.5421 12.1672 11.5434 12.1819 11.5446C12.1924 11.5454 12.2026 11.5463 12.2102 11.5473C12.2083 11.5521 12.2065 11.5569 12.2045 11.5617C12.1874 11.5709 12.1695 11.5866 12.1907 11.5975C12.1887 11.6027 12.1867 11.6078 12.1847 11.6127C12.1805 11.6236 12.176 11.6328 12.1718 11.6443C12.1703 11.648 12.1689 11.6517 12.1675 11.6554C12.1675 11.6555 12.1675 11.6555 12.1674 11.6555C12.1646 11.663 12.1616 11.6703 12.1586 11.6772C12.1574 11.6802 12.1561 11.6832 12.1548 11.6861C12.1515 11.6932 12.1483 11.7017 12.145 11.7099C12.1432 11.7143 12.1414 11.7186 12.1396 11.7227C12.1367 11.7295 12.1337 11.7361 12.1306 11.7423C12.1256 11.754 12.1205 11.7666 12.1149 11.7768C12.114 11.7785 12.111 11.7801 12.1065 11.7813C12.102 11.7824 12.0963 11.783 12.0904 11.783C12.0845 11.783 12.0788 11.7824 12.0743 11.7814C12.0698 11.7804 12.0669 11.779 12.0659 11.7775C12.0602 11.7686 12.0541 11.7577 12.048 11.7475C12.0442 11.7421 12.0404 11.7365 12.0366 11.7306C12.0342 11.7269 12.0319 11.7232 12.0295 11.7194C12.0251 11.7121 12.0205 11.7046 12.0162 11.6985C12.0144 11.6959 12.0127 11.6933 12.0109 11.6907C12.0068 11.6845 12.0027 11.678 11.9986 11.6713C11.9986 11.6713 11.9986 11.6713 11.9985 11.6712C11.9965 11.6679 11.9945 11.6646 11.9925 11.6613C11.9863 11.6509 11.9804 11.6428 11.9743 11.6328C11.9711 11.6278 11.9679 11.6224 11.9647 11.617C11.9629 11.614 11.9611 11.611 11.9593 11.608C11.9583 11.6063 11.9574 11.6047 11.9564 11.603C11.9342 11.5674 11.9126 11.5279 11.8923 11.4911C11.8718 11.4516 11.8527 11.4151 11.8344 11.3744C11.8163 11.3359 11.7992 11.2946 11.7834 11.2547C11.6835 10.9971 11.622 10.7111 11.6482 10.4049C11.6519 10.3615 11.658 10.3162 11.6657 10.2725C11.6735 10.2282 11.6832 10.1841 11.6953 10.1398C11.699 10.1263 11.703 10.1124 11.7073 10.0983Z" fill="#0D0D0D"/>
</svg>
