<svg width="30" height="30" viewBox="0 0 30 30" fill="none" xmlns="http://www.w3.org/2000/svg">
<rect x="7" y="7" width="16" height="16" fill="white" stroke="#0D0D0D"/>
<rect x="11.5" y="7.5" width="1" height="1" fill="#0D0D0D"/>
<rect x="11.5" y="9.5" width="1" height="1" fill="#0D0D0D"/>
<rect x="11.5" y="13.5" width="1" height="1" fill="#0D0D0D"/>
<rect x="11.5" y="15.5" width="1" height="1" fill="#0D0D0D"/>
<rect x="11.5" y="11.5" width="1" height="1" fill="#0D0D0D"/>
<rect x="13.5" y="11.5" width="1" height="1" fill="#0D0D0D"/>
<rect x="15.5" y="11.5" width="1" height="1" fill="#0D0D0D"/>
<rect x="17.5" y="11.5" width="1" height="1" fill="#0D0D0D"/>
<rect x="17.5" y="9.5" width="1" height="1" fill="#0D0D0D"/>
<rect x="17.5" y="7.5" width="1" height="1" fill="#0D0D0D"/>
<rect x="19.5" y="11.5" width="1" height="1" fill="#0D0D0D"/>
<rect x="21.5" y="11.5" width="1" height="1" fill="#0D0D0D"/>
<rect x="11.5" y="17.5" width="1" height="1" fill="#0D0D0D"/>
<rect x="11.5" y="19.5" width="1" height="1" fill="#0D0D0D"/>
<rect x="11.5" y="21.5" width="1" height="1" fill="#0D0D0D"/>
<rect x="9.5" y="11.5" width="1" height="1" fill="#0D0D0D"/>
<rect x="9.5" y="17.5" width="1" height="1" fill="#0D0D0D"/>
<rect x="13.5" y="17.5" width="1" height="1" fill="#0D0D0D"/>
<rect x="15.5" y="17.5" width="1" height="1" fill="#0D0D0D"/>
<rect x="17.5" y="17.5" width="1" height="1" fill="#0D0D0D"/>
<rect x="17.5" y="19.5" width="1" height="1" fill="#0D0D0D"/>
<rect x="17.5" y="21.5" width="1" height="1" fill="#0D0D0D"/>
<rect x="17.5" y="15.5" width="1" height="1" fill="#0D0D0D"/>
<rect x="17.5" y="13.5" width="1" height="1" fill="#0D0D0D"/>
<rect x="19.5" y="17.5" width="1" height="1" fill="#0D0D0D"/>
<rect x="21.5" y="17.5" width="1" height="1" fill="#0D0D0D"/>
<rect x="7.5" y="17.5" width="1" height="1" fill="#0D0D0D"/>
<rect x="7.5" y="11.5" width="1" height="1" fill="#0D0D0D"/>
</svg>
