<svg width="30" height="30" viewBox="0 0 30 30" fill="none" xmlns="http://www.w3.org/2000/svg">
<path d="M20.9095 9.80027L14.4736 16.7926" stroke="#0D0D0D" stroke-linecap="round"/>
<path d="M8.4055 24.1232C8.21849 24.3264 7.90191 24.3397 7.69873 24.1527C7.49587 23.9657 7.48342 23.6498 7.67033 23.4468L13.8817 16.7967C14.2757 16.8426 14.2183 16.9065 14.4215 17.0932C14.6565 17.3656 14.5722 17.3014 14.6532 17.4978L8.4055 24.1232Z" fill="black"/>
<path d="M15.7736 22.4119L16.7731 22.3781L16.8068 23.3776L15.8073 23.4113L15.7736 22.4119Z" fill="#141414"/>
<path d="M24.9791 18.0842L25.9785 18.0505L26.0122 19.0499L25.0128 19.0837L24.9791 18.0842Z" fill="#141414"/>
<path d="M22.7564 7.17242L23.7558 7.1387L23.7896 8.13813L22.7901 8.17185L22.7564 7.17242Z" fill="#141414"/>
<path d="M11.8447 5.78167L12.8442 5.74796L12.8779 6.74739L11.8785 6.7811L11.8447 5.78167Z" fill="#141414"/>
<path d="M7.6045 15.3221L8.60393 15.2884L8.63765 16.2878L7.63822 16.3215L7.6045 15.3221Z" fill="#141414"/>
<path d="M20.6356 8.76694C21.4407 8.38888 22.3017 9.17134 22.0022 10.0089L21.0362 12.7098C20.9099 13.0629 20.9918 13.4569 21.2482 13.7305L23.2101 15.8231C23.8185 16.4721 23.3404 17.5327 22.4513 17.5067L19.584 17.4226C19.2092 17.4116 18.8597 17.6112 18.6788 17.9397L17.2948 20.4522C16.8657 21.2313 15.7092 21.1044 15.4592 20.2507L14.6532 17.4978C14.5478 17.138 14.25 16.8673 13.8817 16.7967L11.0645 16.2569C10.1908 16.0895 9.95419 14.9504 10.6888 14.4489L13.0579 12.8316C13.3676 12.6201 13.533 12.2532 13.4863 11.8812L13.1291 9.03501C13.0184 8.15244 14.0286 7.57535 14.7326 8.11906L17.0028 9.8724C17.2996 10.1016 17.6997 10.1455 18.0391 9.98614L20.6356 8.76694Z" fill="white"/>
<path d="M14.0087 17.3915C14.0194 17.4003 14.0299 17.4092 14.0399 17.4189L8.19617 23.6161L14.0087 17.3915ZM13.6249 8.97256C13.5697 8.53153 14.0747 8.24316 14.4266 8.51456L16.6971 10.2685C17.1423 10.6122 17.7427 10.6774 18.2518 10.4384L20.8485 9.21964C21.251 9.03096 21.6809 9.42207 21.5311 9.84073L20.5653 12.5419C20.3761 13.0714 20.4991 13.6619 20.8837 14.0722L22.8456 16.1649C23.1497 16.4894 22.9102 17.0198 22.4657 17.0067L19.5985 16.9228C19.0365 16.9063 18.5125 17.2057 18.2411 17.6982L16.8573 20.2108C16.6427 20.6004 16.0644 20.537 15.9393 20.1103L15.2128 17.6317L15.2382 17.6054L15.1151 17.3075C15.1041 17.2809 15.1005 17.2675 15.0975 17.2567C15.0967 17.2538 15.0806 17.1872 15.0536 17.1249C15.0231 17.0546 14.9849 16.996 14.9462 16.9442C14.9231 16.9133 14.8947 16.8804 14.8632 16.8427C14.8501 16.8264 14.8368 16.8105 14.8231 16.7948C14.8154 16.7858 14.8078 16.776 14.7997 16.7665L14.7811 16.745L14.7596 16.7255L14.6805 16.6425C14.6563 16.6153 14.5996 16.5488 14.5223 16.4911C14.3539 16.3654 14.1601 16.3267 13.9628 16.3026L11.1581 15.7655C10.7218 15.6815 10.6038 15.113 10.9706 14.8622L13.3397 13.244C13.8041 12.927 14.0522 12.3772 13.9823 11.8192L13.6249 8.97256Z" stroke="#0D0D0D"/>
</svg>
