<svg width="30" height="30" viewBox="0 0 30 30" fill="none" xmlns="http://www.w3.org/2000/svg">
<rect x="7" y="15" width="16" height="8" stroke="#0D0D0D" stroke-dasharray="1 1"/>
<rect x="7" y="7" width="16" height="8" stroke="#0D0D0D" stroke-dasharray="1 1"/>
<path d="M14.848 12.5V10.084L14.488 10.44L14.2 10.2L14.848 9.56H15.392V12.5H14.848Z" fill="#0D0D0D"/>
<path d="M14.224 20.5V20.496C14.224 20.4293 14.224 20.3627 14.224 20.296C14.2267 20.2267 14.232 20.1587 14.24 20.092C14.2507 20.0227 14.264 19.956 14.28 19.892C14.296 19.8253 14.316 19.76 14.34 19.696C14.3667 19.632 14.3973 19.5707 14.432 19.512C14.4667 19.4533 14.504 19.3973 14.544 19.344C14.5867 19.2907 14.632 19.24 14.68 19.192C14.728 19.144 14.7787 19.0987 14.832 19.056C14.8853 19.0133 14.9373 18.9707 14.988 18.928C15.0413 18.8853 15.088 18.836 15.128 18.78C15.168 18.724 15.1973 18.664 15.216 18.6C15.2347 18.5333 15.244 18.4653 15.244 18.396C15.244 18.3667 15.2427 18.3373 15.24 18.308C15.2373 18.2787 15.2333 18.2493 15.228 18.22C15.2227 18.1907 15.2133 18.1627 15.2 18.136C15.1893 18.1067 15.1747 18.0813 15.156 18.06C15.14 18.036 15.1173 18.0173 15.088 18.004C15.0613 17.9907 15.0333 17.984 15.004 17.984C14.964 17.984 14.9267 17.9947 14.892 18.016C14.86 18.0373 14.8333 18.0653 14.812 18.1C14.7933 18.1347 14.78 18.172 14.772 18.212C14.7667 18.2493 14.764 18.288 14.764 18.328V18.34H14.216V18.312C14.216 18.2427 14.2227 18.1733 14.236 18.104C14.252 18.0347 14.276 17.9693 14.308 17.908C14.34 17.8467 14.38 17.7907 14.428 17.74C14.4787 17.6893 14.5347 17.648 14.596 17.616C14.66 17.5813 14.7267 17.5587 14.796 17.548C14.8653 17.5347 14.9347 17.528 15.004 17.528C15.0787 17.528 15.152 17.536 15.224 17.552C15.2987 17.5653 15.368 17.592 15.432 17.632C15.496 17.6693 15.552 17.7173 15.6 17.776C15.648 17.832 15.6867 17.8947 15.716 17.964C15.7453 18.0307 15.7653 18.1013 15.776 18.176C15.7867 18.248 15.792 18.3213 15.792 18.396C15.792 18.4787 15.7827 18.5613 15.764 18.644C15.7453 18.724 15.716 18.8 15.676 18.872C15.636 18.944 15.588 19.0107 15.532 19.072C15.476 19.1333 15.4173 19.192 15.356 19.248C15.2973 19.3013 15.2387 19.3573 15.18 19.416C15.1213 19.472 15.0667 19.5333 15.016 19.6C14.968 19.6667 14.9253 19.7373 14.888 19.812C14.8533 19.8867 14.8267 19.964 14.808 20.044H15.776V20.5H14.224Z" fill="#0D0D0D"/>
<rect x="7" y="7" width="16" height="16" stroke="#0D0D0D"/>
</svg>
